<mxfile host="app.diagrams.net" agent="Mozilla/5.0 (X11; Linux x86_64) AppleWebKit/537.36 (KHTML, like Gecko) Chrome/127.0.0.0 Safari/537.36" version="24.7.7">
  <diagram name="Page-1" id="c3BF2ygDe9qbJUDc34sD">
    <mxGraphModel dx="9924" dy="10247" grid="1" gridSize="10" guides="1" tooltips="1" connect="1" arrows="1" fold="1" page="1" pageScale="2.5" pageWidth="850" pageHeight="1100" math="0" shadow="0">
      <root>
        <mxCell id="0" />
        <mxCell id="1" parent="0" />
        <mxCell id="K3HkH2EL4yBhqLBcemKd-1" value="" style="rounded=0;whiteSpace=wrap;html=1;" parent="1" vertex="1">
          <mxGeometry x="-3940" y="-6560" width="2630" height="60" as="geometry" />
        </mxCell>
        <mxCell id="K3HkH2EL4yBhqLBcemKd-10" value="" style="rounded=0;whiteSpace=wrap;html=1;fillColor=#008a00;fontColor=#ffffff;strokeColor=#005700;" parent="1" vertex="1">
          <mxGeometry x="-3870" y="-6560" width="200" height="60" as="geometry" />
        </mxCell>
        <mxCell id="K3HkH2EL4yBhqLBcemKd-11" value="&lt;span style=&quot;font-size: 35px;&quot;&gt;!&lt;/span&gt;" style="rounded=0;whiteSpace=wrap;html=1;fillColor=#fff2cc;strokeColor=#d6b656;" parent="1" vertex="1">
          <mxGeometry x="-3610" y="-6560" width="60" height="60" as="geometry" />
        </mxCell>
        <mxCell id="K3HkH2EL4yBhqLBcemKd-17" value="&lt;font style=&quot;font-size: 50px;&quot;&gt;Head&lt;br&gt;y&lt;/font&gt;" style="text;html=1;align=center;verticalAlign=middle;whiteSpace=wrap;rounded=0;" parent="1" vertex="1">
          <mxGeometry x="-3720" y="-6400" width="170" height="70" as="geometry" />
        </mxCell>
        <mxCell id="K3HkH2EL4yBhqLBcemKd-21" value="" style="rounded=0;whiteSpace=wrap;html=1;" parent="1" vertex="1">
          <mxGeometry x="-3490" y="-6560" width="610" height="60" as="geometry" />
        </mxCell>
        <mxCell id="K3HkH2EL4yBhqLBcemKd-24" value="&lt;span style=&quot;font-size: 35px;&quot;&gt;X&lt;/span&gt;" style="rounded=0;whiteSpace=wrap;html=1;fillColor=#fff2cc;strokeColor=#d6b656;" parent="1" vertex="1">
          <mxGeometry x="-3550" y="-6560" width="60" height="60" as="geometry" />
        </mxCell>
        <mxCell id="K3HkH2EL4yBhqLBcemKd-26" value="&lt;span style=&quot;font-size: 35px;&quot;&gt;md&lt;/span&gt;" style="rounded=0;whiteSpace=wrap;html=1;fillColor=#fff2cc;strokeColor=#d6b656;" parent="1" vertex="1">
          <mxGeometry x="-3670" y="-6560" width="60" height="60" as="geometry" />
        </mxCell>
        <mxCell id="K3HkH2EL4yBhqLBcemKd-27" value="" style="endArrow=classic;html=1;rounded=0;" parent="1" edge="1">
          <mxGeometry width="50" height="50" relative="1" as="geometry">
            <mxPoint x="-3630" y="-6440" as="sourcePoint" />
            <mxPoint x="-3630" y="-6500" as="targetPoint" />
          </mxGeometry>
        </mxCell>
        <mxCell id="K3HkH2EL4yBhqLBcemKd-28" value="&lt;span style=&quot;font-size: 50px;&quot;&gt;break&lt;/span&gt;" style="text;html=1;align=center;verticalAlign=middle;whiteSpace=wrap;rounded=0;" parent="1" vertex="1">
          <mxGeometry x="-1470" y="-6410" width="170" height="70" as="geometry" />
        </mxCell>
        <mxCell id="K3HkH2EL4yBhqLBcemKd-2" value="&lt;font style=&quot;font-size: 35px;&quot;&gt;md&lt;/font&gt;" style="rounded=0;whiteSpace=wrap;html=1;fillColor=#fff2cc;strokeColor=#d6b656;" parent="1" vertex="1">
          <mxGeometry x="-3940" y="-6560" width="70" height="60" as="geometry" />
        </mxCell>
        <mxCell id="K3HkH2EL4yBhqLBcemKd-38" value="" style="endArrow=classic;html=1;rounded=0;" parent="1" edge="1">
          <mxGeometry width="50" height="50" relative="1" as="geometry">
            <mxPoint x="-1391" y="-6430" as="sourcePoint" />
            <mxPoint x="-1391" y="-6490" as="targetPoint" />
          </mxGeometry>
        </mxCell>
        <mxCell id="K3HkH2EL4yBhqLBcemKd-44" value="" style="rounded=0;whiteSpace=wrap;html=1;fillColor=#fff2cc;strokeColor=#d6b656;" parent="1" vertex="1">
          <mxGeometry x="-1420" y="-6560" width="60" height="60" as="geometry" />
        </mxCell>
        <mxCell id="K3HkH2EL4yBhqLBcemKd-45" value="" style="rounded=0;whiteSpace=wrap;html=1;fillColor=#008a00;fontColor=#ffffff;strokeColor=#005700;" parent="1" vertex="1">
          <mxGeometry x="-2810" y="-6560" width="200" height="60" as="geometry" />
        </mxCell>
        <mxCell id="K3HkH2EL4yBhqLBcemKd-46" value="&lt;font style=&quot;font-size: 35px;&quot;&gt;md&lt;/font&gt;" style="rounded=0;whiteSpace=wrap;html=1;fillColor=#fff2cc;strokeColor=#d6b656;" parent="1" vertex="1">
          <mxGeometry x="-2880" y="-6560" width="70" height="60" as="geometry" />
        </mxCell>
        <mxCell id="K3HkH2EL4yBhqLBcemKd-47" value="&lt;span style=&quot;font-size: 35px;&quot;&gt;y&lt;/span&gt;" style="rounded=0;whiteSpace=wrap;html=1;fillColor=#fff2cc;strokeColor=#d6b656;" parent="1" vertex="1">
          <mxGeometry x="-2550" y="-6560" width="60" height="60" as="geometry" />
        </mxCell>
        <mxCell id="K3HkH2EL4yBhqLBcemKd-48" value="&lt;font style=&quot;font-size: 35px;&quot;&gt;X&lt;/font&gt;" style="text;html=1;align=center;verticalAlign=middle;whiteSpace=wrap;rounded=0;" parent="1" vertex="1">
          <mxGeometry x="-2660" y="-6400" width="170" height="70" as="geometry" />
        </mxCell>
        <mxCell id="K3HkH2EL4yBhqLBcemKd-49" value="" style="rounded=0;whiteSpace=wrap;html=1;" parent="1" vertex="1">
          <mxGeometry x="-2430" y="-6560" width="210" height="60" as="geometry" />
        </mxCell>
        <mxCell id="K3HkH2EL4yBhqLBcemKd-50" value="&lt;span style=&quot;font-size: 35px;&quot;&gt;z&lt;/span&gt;" style="rounded=0;whiteSpace=wrap;html=1;fillColor=#fff2cc;strokeColor=#d6b656;" parent="1" vertex="1">
          <mxGeometry x="-2490" y="-6560" width="60" height="60" as="geometry" />
        </mxCell>
        <mxCell id="K3HkH2EL4yBhqLBcemKd-51" value="&lt;span style=&quot;font-size: 35px;&quot;&gt;md&lt;/span&gt;" style="rounded=0;whiteSpace=wrap;html=1;fillColor=#fff2cc;strokeColor=#d6b656;" parent="1" vertex="1">
          <mxGeometry x="-2610" y="-6560" width="60" height="60" as="geometry" />
        </mxCell>
        <mxCell id="K3HkH2EL4yBhqLBcemKd-52" value="" style="endArrow=classic;html=1;rounded=0;" parent="1" edge="1">
          <mxGeometry width="50" height="50" relative="1" as="geometry">
            <mxPoint x="-2570" y="-6440" as="sourcePoint" />
            <mxPoint x="-2570" y="-6500" as="targetPoint" />
          </mxGeometry>
        </mxCell>
        <mxCell id="K3HkH2EL4yBhqLBcemKd-53" value="" style="rounded=0;whiteSpace=wrap;html=1;fillColor=#008a00;fontColor=#ffffff;strokeColor=#005700;" parent="1" vertex="1">
          <mxGeometry x="-2160" y="-6560" width="200" height="60" as="geometry" />
        </mxCell>
        <mxCell id="K3HkH2EL4yBhqLBcemKd-54" value="&lt;font style=&quot;font-size: 35px;&quot;&gt;md&lt;/font&gt;" style="rounded=0;whiteSpace=wrap;html=1;fillColor=#fff2cc;strokeColor=#d6b656;" parent="1" vertex="1">
          <mxGeometry x="-2230" y="-6560" width="70" height="60" as="geometry" />
        </mxCell>
        <mxCell id="K3HkH2EL4yBhqLBcemKd-55" value="&lt;span style=&quot;font-size: 35px;&quot;&gt;x&lt;/span&gt;" style="rounded=0;whiteSpace=wrap;html=1;fillColor=#fff2cc;strokeColor=#d6b656;" parent="1" vertex="1">
          <mxGeometry x="-1900" y="-6560" width="60" height="60" as="geometry" />
        </mxCell>
        <mxCell id="K3HkH2EL4yBhqLBcemKd-56" value="&lt;font style=&quot;font-size: 50px;&quot;&gt;Tail&lt;br&gt;Z&lt;/font&gt;" style="text;html=1;align=center;verticalAlign=middle;whiteSpace=wrap;rounded=0;" parent="1" vertex="1">
          <mxGeometry x="-2010" y="-6400" width="170" height="70" as="geometry" />
        </mxCell>
        <mxCell id="K3HkH2EL4yBhqLBcemKd-57" value="" style="rounded=0;whiteSpace=wrap;html=1;" parent="1" vertex="1">
          <mxGeometry x="-1780" y="-6560" width="360" height="60" as="geometry" />
        </mxCell>
        <mxCell id="K3HkH2EL4yBhqLBcemKd-58" value="&lt;span style=&quot;font-size: 35px;&quot;&gt;!&lt;/span&gt;" style="rounded=0;whiteSpace=wrap;html=1;fillColor=#fff2cc;strokeColor=#d6b656;" parent="1" vertex="1">
          <mxGeometry x="-1840" y="-6560" width="60" height="60" as="geometry" />
        </mxCell>
        <mxCell id="K3HkH2EL4yBhqLBcemKd-59" value="&lt;span style=&quot;font-size: 35px;&quot;&gt;md&lt;/span&gt;" style="rounded=0;whiteSpace=wrap;html=1;fillColor=#fff2cc;strokeColor=#d6b656;" parent="1" vertex="1">
          <mxGeometry x="-1960" y="-6560" width="60" height="60" as="geometry" />
        </mxCell>
        <mxCell id="K3HkH2EL4yBhqLBcemKd-60" value="" style="endArrow=classic;html=1;rounded=0;" parent="1" edge="1">
          <mxGeometry width="50" height="50" relative="1" as="geometry">
            <mxPoint x="-1920" y="-6440" as="sourcePoint" />
            <mxPoint x="-1920" y="-6500" as="targetPoint" />
          </mxGeometry>
        </mxCell>
        <mxCell id="K3HkH2EL4yBhqLBcemKd-61" value="&lt;font style=&quot;font-size: 50px;&quot;&gt;malloc(size)&lt;/font&gt;" style="rounded=0;whiteSpace=wrap;html=1;" parent="1" vertex="1">
          <mxGeometry x="2160" y="-6470" width="340" height="140" as="geometry" />
        </mxCell>
        <mxCell id="K3HkH2EL4yBhqLBcemKd-67" style="edgeStyle=orthogonalEdgeStyle;rounded=0;orthogonalLoop=1;jettySize=auto;html=1;entryX=0.5;entryY=0;entryDx=0;entryDy=0;targetPerimeterSpacing=-2;strokeWidth=5;" parent="1" source="K3HkH2EL4yBhqLBcemKd-62" target="K3HkH2EL4yBhqLBcemKd-66" edge="1">
          <mxGeometry relative="1" as="geometry" />
        </mxCell>
        <mxCell id="K3HkH2EL4yBhqLBcemKd-62" value="&lt;font style=&quot;font-size: 50px;&quot;&gt;SimHeap[i] &amp;gt; Size&lt;/font&gt;" style="rounded=0;whiteSpace=wrap;html=1;" parent="1" vertex="1">
          <mxGeometry x="2110" y="-6100" width="470" height="140" as="geometry" />
        </mxCell>
        <mxCell id="K3HkH2EL4yBhqLBcemKd-63" style="edgeStyle=orthogonalEdgeStyle;rounded=0;orthogonalLoop=1;jettySize=auto;html=1;entryX=0.457;entryY=0.052;entryDx=0;entryDy=0;entryPerimeter=0;strokeWidth=5;" parent="1" source="K3HkH2EL4yBhqLBcemKd-61" target="K3HkH2EL4yBhqLBcemKd-62" edge="1">
          <mxGeometry relative="1" as="geometry" />
        </mxCell>
        <mxCell id="K3HkH2EL4yBhqLBcemKd-64" value="&lt;font style=&quot;font-size: 25px;&quot;&gt;define i = head index&lt;/font&gt;" style="edgeLabel;html=1;align=center;verticalAlign=middle;resizable=0;points=[];" parent="K3HkH2EL4yBhqLBcemKd-63" vertex="1" connectable="0">
          <mxGeometry x="0.0164" y="3" relative="1" as="geometry">
            <mxPoint y="1" as="offset" />
          </mxGeometry>
        </mxCell>
        <mxCell id="K3HkH2EL4yBhqLBcemKd-70" style="edgeStyle=orthogonalEdgeStyle;rounded=0;orthogonalLoop=1;jettySize=auto;html=1;exitX=0.5;exitY=1;exitDx=0;exitDy=0;strokeWidth=5;" parent="1" source="K3HkH2EL4yBhqLBcemKd-66" edge="1">
          <mxGeometry relative="1" as="geometry">
            <mxPoint x="2346" y="-5500" as="targetPoint" />
          </mxGeometry>
        </mxCell>
        <mxCell id="K3HkH2EL4yBhqLBcemKd-71" value="&lt;font style=&quot;font-size: 35px;&quot;&gt;Yes&lt;/font&gt;" style="edgeLabel;html=1;align=center;verticalAlign=middle;resizable=0;points=[];" parent="K3HkH2EL4yBhqLBcemKd-70" vertex="1" connectable="0">
          <mxGeometry x="-0.2844" y="-5" relative="1" as="geometry">
            <mxPoint y="1" as="offset" />
          </mxGeometry>
        </mxCell>
        <mxCell id="K3HkH2EL4yBhqLBcemKd-73" value="" style="edgeStyle=orthogonalEdgeStyle;rounded=0;orthogonalLoop=1;jettySize=auto;html=1;strokeWidth=5;" parent="1" source="K3HkH2EL4yBhqLBcemKd-66" target="K3HkH2EL4yBhqLBcemKd-72" edge="1">
          <mxGeometry relative="1" as="geometry" />
        </mxCell>
        <mxCell id="K3HkH2EL4yBhqLBcemKd-74" value="&lt;font style=&quot;font-size: 35px;&quot;&gt;No&lt;/font&gt;" style="edgeLabel;html=1;align=center;verticalAlign=middle;resizable=0;points=[];" parent="K3HkH2EL4yBhqLBcemKd-73" vertex="1" connectable="0">
          <mxGeometry x="-0.1625" y="-5" relative="1" as="geometry">
            <mxPoint x="1" as="offset" />
          </mxGeometry>
        </mxCell>
        <mxCell id="K3HkH2EL4yBhqLBcemKd-66" value="&lt;font style=&quot;font-size: 45px;&quot;&gt;Check Condition&lt;/font&gt;" style="rhombus;whiteSpace=wrap;html=1;" parent="1" vertex="1">
          <mxGeometry x="2205" y="-5840" width="280" height="200" as="geometry" />
        </mxCell>
        <mxCell id="K3HkH2EL4yBhqLBcemKd-343" style="edgeStyle=orthogonalEdgeStyle;rounded=0;orthogonalLoop=1;jettySize=auto;html=1;entryX=1;entryY=0.5;entryDx=0;entryDy=0;strokeWidth=5;" parent="1" source="K3HkH2EL4yBhqLBcemKd-72" target="K3HkH2EL4yBhqLBcemKd-78" edge="1">
          <mxGeometry relative="1" as="geometry" />
        </mxCell>
        <mxCell id="K3HkH2EL4yBhqLBcemKd-72" value="&lt;span style=&quot;font-size: 50px;&quot;&gt;SimHeap[i] == Size&lt;/span&gt;" style="whiteSpace=wrap;html=1;" parent="1" vertex="1">
          <mxGeometry x="1540" y="-5770" width="505" height="60" as="geometry" />
        </mxCell>
        <mxCell id="K3HkH2EL4yBhqLBcemKd-82" value="" style="edgeStyle=orthogonalEdgeStyle;rounded=0;orthogonalLoop=1;jettySize=auto;html=1;strokeWidth=5;" parent="1" source="K3HkH2EL4yBhqLBcemKd-78" edge="1">
          <mxGeometry relative="1" as="geometry">
            <mxPoint x="1270" y="-5960" as="targetPoint" />
          </mxGeometry>
        </mxCell>
        <mxCell id="K3HkH2EL4yBhqLBcemKd-84" value="&lt;font style=&quot;font-size: 35px;&quot;&gt;No&lt;/font&gt;" style="edgeLabel;html=1;align=center;verticalAlign=middle;resizable=0;points=[];" parent="K3HkH2EL4yBhqLBcemKd-82" vertex="1" connectable="0">
          <mxGeometry x="-0.0704" y="4" relative="1" as="geometry">
            <mxPoint y="1" as="offset" />
          </mxGeometry>
        </mxCell>
        <mxCell id="K3HkH2EL4yBhqLBcemKd-350" style="edgeStyle=orthogonalEdgeStyle;rounded=0;orthogonalLoop=1;jettySize=auto;html=1;exitX=0.5;exitY=1;exitDx=0;exitDy=0;entryX=0.5;entryY=0;entryDx=0;entryDy=0;strokeWidth=5;" parent="1" source="K3HkH2EL4yBhqLBcemKd-78" target="K3HkH2EL4yBhqLBcemKd-265" edge="1">
          <mxGeometry relative="1" as="geometry" />
        </mxCell>
        <mxCell id="K3HkH2EL4yBhqLBcemKd-78" value="&lt;font style=&quot;font-size: 45px;&quot;&gt;Check Condition&lt;/font&gt;" style="rhombus;whiteSpace=wrap;html=1;" parent="1" vertex="1">
          <mxGeometry x="1130" y="-5840" width="280" height="200" as="geometry" />
        </mxCell>
        <mxCell id="K3HkH2EL4yBhqLBcemKd-340" style="edgeStyle=orthogonalEdgeStyle;rounded=0;orthogonalLoop=1;jettySize=auto;html=1;entryX=0;entryY=0.5;entryDx=0;entryDy=0;strokeWidth=5;" parent="1" source="K3HkH2EL4yBhqLBcemKd-83" target="K3HkH2EL4yBhqLBcemKd-297" edge="1">
          <mxGeometry relative="1" as="geometry" />
        </mxCell>
        <mxCell id="K3HkH2EL4yBhqLBcemKd-83" value="&lt;font style=&quot;font-size: 50px;&quot;&gt;i = next free space node&lt;/font&gt;" style="rounded=0;whiteSpace=wrap;html=1;" parent="1" vertex="1">
          <mxGeometry x="1063" y="-6100" width="470" height="140" as="geometry" />
        </mxCell>
        <mxCell id="K3HkH2EL4yBhqLBcemKd-344" style="edgeStyle=orthogonalEdgeStyle;rounded=0;orthogonalLoop=1;jettySize=auto;html=1;exitX=0.5;exitY=1;exitDx=0;exitDy=0;entryX=0.5;entryY=0;entryDx=0;entryDy=0;strokeWidth=5;" parent="1" source="K3HkH2EL4yBhqLBcemKd-88" target="K3HkH2EL4yBhqLBcemKd-93" edge="1">
          <mxGeometry relative="1" as="geometry" />
        </mxCell>
        <mxCell id="K3HkH2EL4yBhqLBcemKd-88" value="&lt;span style=&quot;font-size: 50px;&quot;&gt;check if i == head&lt;/span&gt;" style="rounded=0;whiteSpace=wrap;html=1;" parent="1" vertex="1">
          <mxGeometry x="2110" y="-5490" width="470" height="140" as="geometry" />
        </mxCell>
        <mxCell id="K3HkH2EL4yBhqLBcemKd-89" style="edgeStyle=orthogonalEdgeStyle;rounded=0;orthogonalLoop=1;jettySize=auto;html=1;exitX=0.5;exitY=1;exitDx=0;exitDy=0;strokeWidth=10;" parent="1" source="K3HkH2EL4yBhqLBcemKd-93" edge="1">
          <mxGeometry relative="1" as="geometry">
            <mxPoint x="2346" y="-4955" as="targetPoint" />
          </mxGeometry>
        </mxCell>
        <mxCell id="K3HkH2EL4yBhqLBcemKd-90" value="&lt;font style=&quot;font-size: 35px;&quot;&gt;Yes&lt;/font&gt;" style="edgeLabel;html=1;align=center;verticalAlign=middle;resizable=0;points=[];" parent="K3HkH2EL4yBhqLBcemKd-89" vertex="1" connectable="0">
          <mxGeometry x="-0.2844" y="-5" relative="1" as="geometry">
            <mxPoint y="1" as="offset" />
          </mxGeometry>
        </mxCell>
        <mxCell id="K3HkH2EL4yBhqLBcemKd-345" style="edgeStyle=orthogonalEdgeStyle;rounded=0;orthogonalLoop=1;jettySize=auto;html=1;entryX=0;entryY=0.5;entryDx=0;entryDy=0;strokeWidth=5;" parent="1" source="K3HkH2EL4yBhqLBcemKd-93" target="K3HkH2EL4yBhqLBcemKd-98" edge="1">
          <mxGeometry relative="1" as="geometry" />
        </mxCell>
        <mxCell id="K3HkH2EL4yBhqLBcemKd-93" value="&lt;font style=&quot;font-size: 45px;&quot;&gt;Check Condition&lt;/font&gt;" style="rhombus;whiteSpace=wrap;html=1;" parent="1" vertex="1">
          <mxGeometry x="2205" y="-5295" width="280" height="200" as="geometry" />
        </mxCell>
        <mxCell id="K3HkH2EL4yBhqLBcemKd-367" style="edgeStyle=orthogonalEdgeStyle;rounded=0;orthogonalLoop=1;jettySize=auto;html=1;entryX=0.5;entryY=0;entryDx=0;entryDy=0;strokeWidth=5;" parent="1" source="K3HkH2EL4yBhqLBcemKd-96" target="K3HkH2EL4yBhqLBcemKd-279" edge="1">
          <mxGeometry relative="1" as="geometry">
            <Array as="points">
              <mxPoint x="2345" y="-4550" />
              <mxPoint x="2130" y="-4550" />
            </Array>
          </mxGeometry>
        </mxCell>
        <mxCell id="K3HkH2EL4yBhqLBcemKd-96" value="&lt;span style=&quot;font-size: 50px;&quot;&gt;case 1&lt;/span&gt;" style="rounded=0;whiteSpace=wrap;html=1;" parent="1" vertex="1">
          <mxGeometry x="2220" y="-4945" width="250" height="140" as="geometry" />
        </mxCell>
        <mxCell id="K3HkH2EL4yBhqLBcemKd-97" value="&lt;h1 style=&quot;margin-top: 0px; font-size: 45px;&quot;&gt;case 1&lt;/h1&gt;&lt;p style=&quot;&quot;&gt;&lt;span style=&quot;font-size: 45px;&quot;&gt;&amp;nbsp; &amp;nbsp; &amp;nbsp; &amp;nbsp; &amp;nbsp; &amp;nbsp; /* handle simulated array if head is suitable to allocate this size&lt;/span&gt;&lt;/p&gt;&lt;p style=&quot;&quot;&gt;&lt;span style=&quot;font-size: 45px;&quot;&gt;&amp;nbsp; &amp;nbsp; &amp;nbsp; &amp;nbsp; &amp;nbsp; &amp;nbsp; *&amp;nbsp; that: 1. previous free space pointer will redefine in array and store ! in this cell&lt;/span&gt;&lt;/p&gt;&lt;p style=&quot;&quot;&gt;&lt;span style=&quot;font-size: 45px;&quot;&gt;&amp;nbsp; &amp;nbsp; &amp;nbsp; &amp;nbsp; &amp;nbsp; &amp;nbsp; *&amp;nbsp; &amp;nbsp; &amp;nbsp; &amp;nbsp; 2. next free space pointer will redefine in array but still point to the same cell&lt;/span&gt;&lt;/p&gt;&lt;p style=&quot;&quot;&gt;&lt;span style=&quot;font-size: 45px;&quot;&gt;&amp;nbsp; &amp;nbsp; &amp;nbsp; &amp;nbsp; &amp;nbsp; &amp;nbsp; *&amp;nbsp; &amp;nbsp; &amp;nbsp; &amp;nbsp; 3. metadata will redefine in array and store remaining size of free space&lt;/span&gt;&lt;/p&gt;&lt;p style=&quot;&quot;&gt;&lt;span style=&quot;font-size: 45px;&quot;&gt;&amp;nbsp; &amp;nbsp; &amp;nbsp; &amp;nbsp; &amp;nbsp; &amp;nbsp; */&lt;/span&gt;&lt;/p&gt;" style="text;html=1;whiteSpace=wrap;overflow=hidden;rounded=0;" parent="1" vertex="1">
          <mxGeometry x="-5880" y="-6050" width="2000" height="410" as="geometry" />
        </mxCell>
        <mxCell id="K3HkH2EL4yBhqLBcemKd-346" style="edgeStyle=orthogonalEdgeStyle;rounded=0;orthogonalLoop=1;jettySize=auto;html=1;exitX=0.5;exitY=1;exitDx=0;exitDy=0;entryX=0.5;entryY=0;entryDx=0;entryDy=0;strokeWidth=5;" parent="1" source="K3HkH2EL4yBhqLBcemKd-98" target="K3HkH2EL4yBhqLBcemKd-106" edge="1">
          <mxGeometry relative="1" as="geometry" />
        </mxCell>
        <mxCell id="K3HkH2EL4yBhqLBcemKd-98" value="&lt;span style=&quot;font-size: 50px;&quot;&gt;check if i == Tail&lt;/span&gt;" style="rounded=0;whiteSpace=wrap;html=1;" parent="1" vertex="1">
          <mxGeometry x="2610" y="-5265" width="470" height="140" as="geometry" />
        </mxCell>
        <mxCell id="K3HkH2EL4yBhqLBcemKd-104" style="edgeStyle=orthogonalEdgeStyle;rounded=0;orthogonalLoop=1;jettySize=auto;html=1;exitX=0.5;exitY=1;exitDx=0;exitDy=0;strokeWidth=10;" parent="1" source="K3HkH2EL4yBhqLBcemKd-106" edge="1">
          <mxGeometry relative="1" as="geometry">
            <mxPoint x="2846" y="-4720" as="targetPoint" />
          </mxGeometry>
        </mxCell>
        <mxCell id="K3HkH2EL4yBhqLBcemKd-105" value="&lt;font style=&quot;font-size: 35px;&quot;&gt;Yes&lt;/font&gt;" style="edgeLabel;html=1;align=center;verticalAlign=middle;resizable=0;points=[];" parent="K3HkH2EL4yBhqLBcemKd-104" vertex="1" connectable="0">
          <mxGeometry x="-0.2844" y="-5" relative="1" as="geometry">
            <mxPoint y="1" as="offset" />
          </mxGeometry>
        </mxCell>
        <mxCell id="K3HkH2EL4yBhqLBcemKd-370" style="edgeStyle=orthogonalEdgeStyle;rounded=0;orthogonalLoop=1;jettySize=auto;html=1;entryX=0;entryY=0.5;entryDx=0;entryDy=0;" parent="1" source="K3HkH2EL4yBhqLBcemKd-106" target="K3HkH2EL4yBhqLBcemKd-115" edge="1">
          <mxGeometry relative="1" as="geometry" />
        </mxCell>
        <mxCell id="K3HkH2EL4yBhqLBcemKd-106" value="&lt;font style=&quot;font-size: 45px;&quot;&gt;Check Condition&lt;/font&gt;" style="rhombus;whiteSpace=wrap;html=1;" parent="1" vertex="1">
          <mxGeometry x="2705" y="-5060" width="280" height="200" as="geometry" />
        </mxCell>
        <mxCell id="K3HkH2EL4yBhqLBcemKd-368" style="edgeStyle=orthogonalEdgeStyle;rounded=0;orthogonalLoop=1;jettySize=auto;html=1;entryX=0.5;entryY=0;entryDx=0;entryDy=0;strokeWidth=5;" parent="1" source="K3HkH2EL4yBhqLBcemKd-107" target="K3HkH2EL4yBhqLBcemKd-279" edge="1">
          <mxGeometry relative="1" as="geometry" />
        </mxCell>
        <mxCell id="K3HkH2EL4yBhqLBcemKd-107" value="&lt;span style=&quot;font-size: 50px;&quot;&gt;case 2&lt;/span&gt;" style="rounded=0;whiteSpace=wrap;html=1;" parent="1" vertex="1">
          <mxGeometry x="2720" y="-4710" width="250" height="140" as="geometry" />
        </mxCell>
        <mxCell id="K3HkH2EL4yBhqLBcemKd-110" value="&lt;h1 style=&quot;margin-top: 0px; font-size: 45px;&quot;&gt;case 2&amp;nbsp;&lt;/h1&gt;&lt;p&gt;&lt;span style=&quot;font-size: 45px;&quot;&gt;&amp;nbsp; &amp;nbsp; &amp;nbsp; &amp;nbsp; &amp;nbsp; &amp;nbsp; /* handle simulated array if tail is suitable to allocate this size&lt;/span&gt;&lt;/p&gt;&lt;p&gt;&lt;span style=&quot;font-size: 45px;&quot;&gt;&amp;nbsp; &amp;nbsp; &amp;nbsp; &amp;nbsp; &amp;nbsp; &amp;nbsp; *&amp;nbsp; that: 1. previous free space pointer will redefine in array but still point to the same cell&lt;/span&gt;&lt;/p&gt;&lt;p&gt;&lt;span style=&quot;font-size: 45px;&quot;&gt;&amp;nbsp; &amp;nbsp; &amp;nbsp; &amp;nbsp; &amp;nbsp; &amp;nbsp; *&amp;nbsp; &amp;nbsp; &amp;nbsp; &amp;nbsp; 2. next free space pointer will redefine in array and store ! in this cell&lt;/span&gt;&lt;/p&gt;&lt;p&gt;&lt;span style=&quot;font-size: 45px;&quot;&gt;&amp;nbsp; &amp;nbsp; &amp;nbsp; &amp;nbsp; &amp;nbsp; &amp;nbsp; *&amp;nbsp; &amp;nbsp; &amp;nbsp; &amp;nbsp; 3. metadata will redefine in array and store remaining size of free space&lt;/span&gt;&lt;/p&gt;&lt;p&gt;&lt;span style=&quot;font-size: 45px;&quot;&gt;&amp;nbsp; &amp;nbsp; &amp;nbsp; &amp;nbsp; &amp;nbsp; &amp;nbsp; */&lt;/span&gt;&lt;/p&gt;" style="text;html=1;whiteSpace=wrap;overflow=hidden;rounded=0;" parent="1" vertex="1">
          <mxGeometry x="-5900" y="-5620" width="2000" height="410" as="geometry" />
        </mxCell>
        <mxCell id="K3HkH2EL4yBhqLBcemKd-347" style="edgeStyle=orthogonalEdgeStyle;rounded=0;orthogonalLoop=1;jettySize=auto;html=1;strokeWidth=5;" parent="1" source="K3HkH2EL4yBhqLBcemKd-115" target="K3HkH2EL4yBhqLBcemKd-119" edge="1">
          <mxGeometry relative="1" as="geometry" />
        </mxCell>
        <mxCell id="K3HkH2EL4yBhqLBcemKd-115" value="&lt;span style=&quot;font-size: 50px;&quot;&gt;Middle node&lt;/span&gt;" style="rounded=0;whiteSpace=wrap;html=1;" parent="1" vertex="1">
          <mxGeometry x="3120" y="-5030" width="470" height="140" as="geometry" />
        </mxCell>
        <mxCell id="K3HkH2EL4yBhqLBcemKd-117" style="edgeStyle=orthogonalEdgeStyle;rounded=0;orthogonalLoop=1;jettySize=auto;html=1;exitX=0.5;exitY=1;exitDx=0;exitDy=0;strokeWidth=10;" parent="1" source="K3HkH2EL4yBhqLBcemKd-119" edge="1">
          <mxGeometry relative="1" as="geometry">
            <mxPoint x="3356" y="-4465" as="targetPoint" />
          </mxGeometry>
        </mxCell>
        <mxCell id="K3HkH2EL4yBhqLBcemKd-118" value="&lt;font style=&quot;font-size: 35px;&quot;&gt;Yes&lt;/font&gt;" style="edgeLabel;html=1;align=center;verticalAlign=middle;resizable=0;points=[];" parent="K3HkH2EL4yBhqLBcemKd-117" vertex="1" connectable="0">
          <mxGeometry x="-0.2844" y="-5" relative="1" as="geometry">
            <mxPoint y="1" as="offset" />
          </mxGeometry>
        </mxCell>
        <mxCell id="K3HkH2EL4yBhqLBcemKd-348" style="edgeStyle=orthogonalEdgeStyle;rounded=0;orthogonalLoop=1;jettySize=auto;html=1;strokeWidth=5;" parent="1" source="K3HkH2EL4yBhqLBcemKd-119" target="K3HkH2EL4yBhqLBcemKd-287" edge="1">
          <mxGeometry relative="1" as="geometry" />
        </mxCell>
        <mxCell id="K3HkH2EL4yBhqLBcemKd-119" value="&lt;font style=&quot;font-size: 45px;&quot;&gt;Check Condition&lt;/font&gt;" style="rhombus;whiteSpace=wrap;html=1;" parent="1" vertex="1">
          <mxGeometry x="3215" y="-4805" width="280" height="200" as="geometry" />
        </mxCell>
        <mxCell id="K3HkH2EL4yBhqLBcemKd-120" value="&lt;span style=&quot;font-size: 50px;&quot;&gt;case 3&lt;/span&gt;" style="rounded=0;whiteSpace=wrap;html=1;" parent="1" vertex="1">
          <mxGeometry x="3230" y="-4455" width="250" height="140" as="geometry" />
        </mxCell>
        <mxCell id="K3HkH2EL4yBhqLBcemKd-128" value="&lt;h1 style=&quot;margin-top: 0px; font-size: 45px;&quot;&gt;case 3&amp;nbsp;&lt;/h1&gt;&lt;p&gt;&lt;span style=&quot;font-size: 45px;&quot;&gt;&amp;nbsp; &amp;nbsp; &amp;nbsp; &amp;nbsp; &amp;nbsp; &amp;nbsp; /* handle simulated array if neither head or tail is suitable to allocate this size&lt;/span&gt;&lt;/p&gt;&lt;p&gt;&lt;span style=&quot;font-size: 45px;&quot;&gt;&amp;nbsp; &amp;nbsp; &amp;nbsp; &amp;nbsp; &amp;nbsp; &amp;nbsp; *&amp;nbsp; that: 1. previous free space pointer will redefine in array but still point to the same cell&lt;/span&gt;&lt;/p&gt;&lt;p&gt;&lt;span style=&quot;font-size: 45px;&quot;&gt;&amp;nbsp; &amp;nbsp; &amp;nbsp; &amp;nbsp; &amp;nbsp; &amp;nbsp; *&amp;nbsp; &amp;nbsp; &amp;nbsp; &amp;nbsp; 2. next free space pointer will redefine in array but still point to the same cell&lt;/span&gt;&lt;/p&gt;&lt;p&gt;&lt;span style=&quot;font-size: 45px;&quot;&gt;&amp;nbsp; &amp;nbsp; &amp;nbsp; &amp;nbsp; &amp;nbsp; &amp;nbsp; *&amp;nbsp; &amp;nbsp; &amp;nbsp; &amp;nbsp; 3. metadata will redefine in array and store remaining size of free space&lt;/span&gt;&lt;/p&gt;&lt;p&gt;&lt;span style=&quot;font-size: 45px;&quot;&gt;&amp;nbsp; &amp;nbsp; &amp;nbsp; &amp;nbsp; &amp;nbsp; &amp;nbsp; */&lt;/span&gt;&lt;/p&gt;" style="text;html=1;whiteSpace=wrap;overflow=hidden;rounded=0;" parent="1" vertex="1">
          <mxGeometry x="-5910" y="-5170" width="2000" height="410" as="geometry" />
        </mxCell>
        <mxCell id="K3HkH2EL4yBhqLBcemKd-129" value="" style="rounded=0;whiteSpace=wrap;html=1;" parent="1" vertex="1">
          <mxGeometry x="-3940" y="-5880" width="2630" height="60" as="geometry" />
        </mxCell>
        <mxCell id="K3HkH2EL4yBhqLBcemKd-130" value="" style="rounded=0;whiteSpace=wrap;html=1;fillColor=#008a00;fontColor=#ffffff;strokeColor=#005700;" parent="1" vertex="1">
          <mxGeometry x="-3590" y="-5880" width="90" height="60" as="geometry" />
        </mxCell>
        <mxCell id="K3HkH2EL4yBhqLBcemKd-131" value="&lt;span style=&quot;font-size: 35px;&quot;&gt;!&lt;/span&gt;" style="rounded=0;whiteSpace=wrap;html=1;fillColor=#0050ef;strokeColor=#001DBC;fontColor=#ffffff;" parent="1" vertex="1">
          <mxGeometry x="-3420" y="-5880" width="60" height="60" as="geometry" />
        </mxCell>
        <mxCell id="K3HkH2EL4yBhqLBcemKd-132" value="&lt;font style=&quot;font-size: 50px;&quot;&gt;Head&lt;br&gt;y&lt;/font&gt;" style="text;html=1;align=center;verticalAlign=middle;whiteSpace=wrap;rounded=0;fillColor=#0050ef;fontColor=#ffffff;strokeColor=#001DBC;" parent="1" vertex="1">
          <mxGeometry x="-3540" y="-5710" width="180" height="140" as="geometry" />
        </mxCell>
        <mxCell id="K3HkH2EL4yBhqLBcemKd-134" value="&lt;span style=&quot;font-size: 35px;&quot;&gt;X&lt;/span&gt;" style="rounded=0;whiteSpace=wrap;html=1;fillColor=#0050ef;strokeColor=#001DBC;fontColor=#ffffff;" parent="1" vertex="1">
          <mxGeometry x="-3360" y="-5880" width="60" height="60" as="geometry" />
        </mxCell>
        <mxCell id="K3HkH2EL4yBhqLBcemKd-135" value="&lt;span style=&quot;font-size: 35px;&quot;&gt;New&lt;/span&gt;" style="rounded=0;whiteSpace=wrap;html=1;fillColor=#0050ef;strokeColor=#001DBC;fontColor=#ffffff;" parent="1" vertex="1">
          <mxGeometry x="-3500" y="-5880" width="80" height="60" as="geometry" />
        </mxCell>
        <mxCell id="K3HkH2EL4yBhqLBcemKd-136" value="" style="endArrow=classic;html=1;rounded=0;" parent="1" edge="1">
          <mxGeometry width="50" height="50" relative="1" as="geometry">
            <mxPoint x="-3461" y="-5760" as="sourcePoint" />
            <mxPoint x="-3461" y="-5820" as="targetPoint" />
          </mxGeometry>
        </mxCell>
        <mxCell id="K3HkH2EL4yBhqLBcemKd-137" value="&lt;span style=&quot;font-size: 50px;&quot;&gt;break&lt;/span&gt;" style="text;html=1;align=center;verticalAlign=middle;whiteSpace=wrap;rounded=0;" parent="1" vertex="1">
          <mxGeometry x="-1610" y="-5730" width="170" height="70" as="geometry" />
        </mxCell>
        <mxCell id="K3HkH2EL4yBhqLBcemKd-138" value="&lt;font style=&quot;font-size: 35px;&quot;&gt;new&lt;/font&gt;" style="rounded=0;whiteSpace=wrap;html=1;fillColor=#0050ef;strokeColor=#001DBC;fontColor=#ffffff;" parent="1" vertex="1">
          <mxGeometry x="-3675" y="-5880" width="85" height="60" as="geometry" />
        </mxCell>
        <mxCell id="K3HkH2EL4yBhqLBcemKd-139" value="" style="endArrow=classic;html=1;rounded=0;" parent="1" edge="1">
          <mxGeometry width="50" height="50" relative="1" as="geometry">
            <mxPoint x="-1531" y="-5750" as="sourcePoint" />
            <mxPoint x="-1531" y="-5810" as="targetPoint" />
          </mxGeometry>
        </mxCell>
        <mxCell id="K3HkH2EL4yBhqLBcemKd-140" value="" style="rounded=0;whiteSpace=wrap;html=1;fillColor=#fff2cc;strokeColor=#d6b656;" parent="1" vertex="1">
          <mxGeometry x="-1560" y="-5880" width="60" height="60" as="geometry" />
        </mxCell>
        <mxCell id="K3HkH2EL4yBhqLBcemKd-141" value="" style="rounded=0;whiteSpace=wrap;html=1;fillColor=#008a00;fontColor=#ffffff;strokeColor=#005700;" parent="1" vertex="1">
          <mxGeometry x="-2950" y="-5880" width="200" height="60" as="geometry" />
        </mxCell>
        <mxCell id="K3HkH2EL4yBhqLBcemKd-142" value="&lt;font style=&quot;font-size: 35px;&quot;&gt;md&lt;/font&gt;" style="rounded=0;whiteSpace=wrap;html=1;fillColor=#fff2cc;strokeColor=#d6b656;" parent="1" vertex="1">
          <mxGeometry x="-3020" y="-5880" width="70" height="60" as="geometry" />
        </mxCell>
        <mxCell id="K3HkH2EL4yBhqLBcemKd-143" value="&lt;span style=&quot;font-size: 35px;&quot;&gt;y&lt;/span&gt;" style="rounded=0;whiteSpace=wrap;html=1;fillColor=#a20025;strokeColor=#6F0000;fontColor=#ffffff;" parent="1" vertex="1">
          <mxGeometry x="-2690" y="-5880" width="60" height="60" as="geometry" />
        </mxCell>
        <mxCell id="K3HkH2EL4yBhqLBcemKd-144" value="&lt;font style=&quot;font-size: 35px;&quot;&gt;X&lt;/font&gt;" style="text;html=1;align=center;verticalAlign=middle;whiteSpace=wrap;rounded=0;" parent="1" vertex="1">
          <mxGeometry x="-2800" y="-5720" width="170" height="70" as="geometry" />
        </mxCell>
        <mxCell id="K3HkH2EL4yBhqLBcemKd-145" value="" style="rounded=0;whiteSpace=wrap;html=1;" parent="1" vertex="1">
          <mxGeometry x="-2570" y="-5880" width="210" height="60" as="geometry" />
        </mxCell>
        <mxCell id="K3HkH2EL4yBhqLBcemKd-146" value="&lt;span style=&quot;font-size: 35px;&quot;&gt;z&lt;/span&gt;" style="rounded=0;whiteSpace=wrap;html=1;fillColor=#fff2cc;strokeColor=#d6b656;" parent="1" vertex="1">
          <mxGeometry x="-2630" y="-5880" width="60" height="60" as="geometry" />
        </mxCell>
        <mxCell id="K3HkH2EL4yBhqLBcemKd-147" value="&lt;span style=&quot;font-size: 35px;&quot;&gt;md&lt;/span&gt;" style="rounded=0;whiteSpace=wrap;html=1;fillColor=#fff2cc;strokeColor=#d6b656;" parent="1" vertex="1">
          <mxGeometry x="-2750" y="-5880" width="60" height="60" as="geometry" />
        </mxCell>
        <mxCell id="K3HkH2EL4yBhqLBcemKd-148" value="" style="endArrow=classic;html=1;rounded=0;" parent="1" edge="1">
          <mxGeometry width="50" height="50" relative="1" as="geometry">
            <mxPoint x="-2710" y="-5760" as="sourcePoint" />
            <mxPoint x="-2710" y="-5820" as="targetPoint" />
          </mxGeometry>
        </mxCell>
        <mxCell id="K3HkH2EL4yBhqLBcemKd-149" value="" style="rounded=0;whiteSpace=wrap;html=1;fillColor=#008a00;fontColor=#ffffff;strokeColor=#005700;" parent="1" vertex="1">
          <mxGeometry x="-2300" y="-5880" width="200" height="60" as="geometry" />
        </mxCell>
        <mxCell id="K3HkH2EL4yBhqLBcemKd-150" value="&lt;font style=&quot;font-size: 35px;&quot;&gt;md&lt;/font&gt;" style="rounded=0;whiteSpace=wrap;html=1;fillColor=#fff2cc;strokeColor=#d6b656;" parent="1" vertex="1">
          <mxGeometry x="-2370" y="-5880" width="70" height="60" as="geometry" />
        </mxCell>
        <mxCell id="K3HkH2EL4yBhqLBcemKd-151" value="&lt;span style=&quot;font-size: 35px;&quot;&gt;x&lt;/span&gt;" style="rounded=0;whiteSpace=wrap;html=1;fillColor=#fff2cc;strokeColor=#d6b656;" parent="1" vertex="1">
          <mxGeometry x="-2040" y="-5880" width="60" height="60" as="geometry" />
        </mxCell>
        <mxCell id="K3HkH2EL4yBhqLBcemKd-152" value="&lt;font style=&quot;font-size: 50px;&quot;&gt;Tail&lt;br&gt;Z&lt;/font&gt;" style="text;html=1;align=center;verticalAlign=middle;whiteSpace=wrap;rounded=0;" parent="1" vertex="1">
          <mxGeometry x="-2150" y="-5720" width="170" height="70" as="geometry" />
        </mxCell>
        <mxCell id="K3HkH2EL4yBhqLBcemKd-153" value="" style="rounded=0;whiteSpace=wrap;html=1;" parent="1" vertex="1">
          <mxGeometry x="-1920" y="-5880" width="360" height="60" as="geometry" />
        </mxCell>
        <mxCell id="K3HkH2EL4yBhqLBcemKd-154" value="&lt;span style=&quot;font-size: 35px;&quot;&gt;!&lt;/span&gt;" style="rounded=0;whiteSpace=wrap;html=1;fillColor=#fff2cc;strokeColor=#d6b656;" parent="1" vertex="1">
          <mxGeometry x="-1980" y="-5880" width="60" height="60" as="geometry" />
        </mxCell>
        <mxCell id="K3HkH2EL4yBhqLBcemKd-155" value="&lt;span style=&quot;font-size: 35px;&quot;&gt;md&lt;/span&gt;" style="rounded=0;whiteSpace=wrap;html=1;fillColor=#fff2cc;strokeColor=#d6b656;" parent="1" vertex="1">
          <mxGeometry x="-2100" y="-5880" width="60" height="60" as="geometry" />
        </mxCell>
        <mxCell id="K3HkH2EL4yBhqLBcemKd-156" value="" style="endArrow=classic;html=1;rounded=0;" parent="1" edge="1">
          <mxGeometry width="50" height="50" relative="1" as="geometry">
            <mxPoint x="-2060" y="-5760" as="sourcePoint" />
            <mxPoint x="-2060" y="-5820" as="targetPoint" />
          </mxGeometry>
        </mxCell>
        <mxCell id="K3HkH2EL4yBhqLBcemKd-157" value="" style="rounded=0;whiteSpace=wrap;html=1;fillColor=#008a00;fontColor=#ffffff;strokeColor=#005700;" parent="1" vertex="1">
          <mxGeometry x="-3875" y="-5880" width="200" height="60" as="geometry" />
        </mxCell>
        <mxCell id="K3HkH2EL4yBhqLBcemKd-158" value="&lt;font style=&quot;font-size: 35px;&quot;&gt;md&lt;/font&gt;" style="rounded=0;whiteSpace=wrap;html=1;fillColor=#fff2cc;strokeColor=#d6b656;" parent="1" vertex="1">
          <mxGeometry x="-3945" y="-5880" width="70" height="60" as="geometry" />
        </mxCell>
        <mxCell id="K3HkH2EL4yBhqLBcemKd-159" value="" style="rounded=0;whiteSpace=wrap;html=1;" parent="1" vertex="1">
          <mxGeometry x="-3945" y="-5450" width="2630" height="60" as="geometry" />
        </mxCell>
        <mxCell id="K3HkH2EL4yBhqLBcemKd-160" value="" style="rounded=0;whiteSpace=wrap;html=1;fillColor=#008a00;fontColor=#ffffff;strokeColor=#005700;" parent="1" vertex="1">
          <mxGeometry x="-3875" y="-5450" width="200" height="60" as="geometry" />
        </mxCell>
        <mxCell id="K3HkH2EL4yBhqLBcemKd-161" value="&lt;span style=&quot;font-size: 35px;&quot;&gt;!&lt;/span&gt;" style="rounded=0;whiteSpace=wrap;html=1;fillColor=#fff2cc;strokeColor=#d6b656;" parent="1" vertex="1">
          <mxGeometry x="-3615" y="-5450" width="60" height="60" as="geometry" />
        </mxCell>
        <mxCell id="K3HkH2EL4yBhqLBcemKd-162" value="&lt;font style=&quot;font-size: 50px;&quot;&gt;Head&lt;br&gt;y&lt;/font&gt;" style="text;html=1;align=center;verticalAlign=middle;whiteSpace=wrap;rounded=0;" parent="1" vertex="1">
          <mxGeometry x="-3725" y="-5290" width="170" height="70" as="geometry" />
        </mxCell>
        <mxCell id="K3HkH2EL4yBhqLBcemKd-163" value="" style="rounded=0;whiteSpace=wrap;html=1;" parent="1" vertex="1">
          <mxGeometry x="-3495" y="-5450" width="610" height="60" as="geometry" />
        </mxCell>
        <mxCell id="K3HkH2EL4yBhqLBcemKd-164" value="&lt;span style=&quot;font-size: 35px;&quot;&gt;X&lt;/span&gt;" style="rounded=0;whiteSpace=wrap;html=1;fillColor=#fff2cc;strokeColor=#d6b656;" parent="1" vertex="1">
          <mxGeometry x="-3555" y="-5450" width="60" height="60" as="geometry" />
        </mxCell>
        <mxCell id="K3HkH2EL4yBhqLBcemKd-165" value="&lt;span style=&quot;font-size: 35px;&quot;&gt;md&lt;/span&gt;" style="rounded=0;whiteSpace=wrap;html=1;fillColor=#fff2cc;strokeColor=#d6b656;" parent="1" vertex="1">
          <mxGeometry x="-3675" y="-5450" width="60" height="60" as="geometry" />
        </mxCell>
        <mxCell id="K3HkH2EL4yBhqLBcemKd-166" value="" style="endArrow=classic;html=1;rounded=0;" parent="1" edge="1">
          <mxGeometry width="50" height="50" relative="1" as="geometry">
            <mxPoint x="-3635" y="-5330" as="sourcePoint" />
            <mxPoint x="-3635" y="-5390" as="targetPoint" />
          </mxGeometry>
        </mxCell>
        <mxCell id="K3HkH2EL4yBhqLBcemKd-167" value="&lt;span style=&quot;font-size: 50px;&quot;&gt;break&lt;/span&gt;" style="text;html=1;align=center;verticalAlign=middle;whiteSpace=wrap;rounded=0;" parent="1" vertex="1">
          <mxGeometry x="-1475" y="-5300" width="170" height="70" as="geometry" />
        </mxCell>
        <mxCell id="K3HkH2EL4yBhqLBcemKd-168" value="&lt;font style=&quot;font-size: 35px;&quot;&gt;md&lt;/font&gt;" style="rounded=0;whiteSpace=wrap;html=1;fillColor=#fff2cc;strokeColor=#d6b656;" parent="1" vertex="1">
          <mxGeometry x="-3945" y="-5450" width="70" height="60" as="geometry" />
        </mxCell>
        <mxCell id="K3HkH2EL4yBhqLBcemKd-169" value="" style="endArrow=classic;html=1;rounded=0;" parent="1" edge="1">
          <mxGeometry width="50" height="50" relative="1" as="geometry">
            <mxPoint x="-1396" y="-5320" as="sourcePoint" />
            <mxPoint x="-1396" y="-5380" as="targetPoint" />
          </mxGeometry>
        </mxCell>
        <mxCell id="K3HkH2EL4yBhqLBcemKd-170" value="" style="rounded=0;whiteSpace=wrap;html=1;fillColor=#fff2cc;strokeColor=#d6b656;" parent="1" vertex="1">
          <mxGeometry x="-1425" y="-5450" width="60" height="60" as="geometry" />
        </mxCell>
        <mxCell id="K3HkH2EL4yBhqLBcemKd-171" value="" style="rounded=0;whiteSpace=wrap;html=1;fillColor=#008a00;fontColor=#ffffff;strokeColor=#005700;" parent="1" vertex="1">
          <mxGeometry x="-2815" y="-5450" width="200" height="60" as="geometry" />
        </mxCell>
        <mxCell id="K3HkH2EL4yBhqLBcemKd-172" value="&lt;font style=&quot;font-size: 35px;&quot;&gt;md&lt;/font&gt;" style="rounded=0;whiteSpace=wrap;html=1;fillColor=#fff2cc;strokeColor=#d6b656;" parent="1" vertex="1">
          <mxGeometry x="-2885" y="-5450" width="70" height="60" as="geometry" />
        </mxCell>
        <mxCell id="K3HkH2EL4yBhqLBcemKd-173" value="&lt;span style=&quot;font-size: 35px;&quot;&gt;y&lt;/span&gt;" style="rounded=0;whiteSpace=wrap;html=1;fillColor=#fff2cc;strokeColor=#d6b656;" parent="1" vertex="1">
          <mxGeometry x="-2555" y="-5450" width="60" height="60" as="geometry" />
        </mxCell>
        <mxCell id="K3HkH2EL4yBhqLBcemKd-174" value="&lt;font style=&quot;font-size: 35px;&quot;&gt;X&lt;/font&gt;" style="text;html=1;align=center;verticalAlign=middle;whiteSpace=wrap;rounded=0;" parent="1" vertex="1">
          <mxGeometry x="-2665" y="-5290" width="170" height="70" as="geometry" />
        </mxCell>
        <mxCell id="K3HkH2EL4yBhqLBcemKd-175" value="" style="rounded=0;whiteSpace=wrap;html=1;" parent="1" vertex="1">
          <mxGeometry x="-2435" y="-5450" width="210" height="60" as="geometry" />
        </mxCell>
        <mxCell id="K3HkH2EL4yBhqLBcemKd-176" value="&lt;span style=&quot;font-size: 35px;&quot;&gt;z&lt;/span&gt;" style="rounded=0;whiteSpace=wrap;html=1;fillColor=#a20025;strokeColor=#6F0000;fontColor=#ffffff;" parent="1" vertex="1">
          <mxGeometry x="-2495" y="-5450" width="60" height="60" as="geometry" />
        </mxCell>
        <mxCell id="K3HkH2EL4yBhqLBcemKd-177" value="&lt;span style=&quot;font-size: 35px;&quot;&gt;md&lt;/span&gt;" style="rounded=0;whiteSpace=wrap;html=1;fillColor=#fff2cc;strokeColor=#d6b656;" parent="1" vertex="1">
          <mxGeometry x="-2615" y="-5450" width="60" height="60" as="geometry" />
        </mxCell>
        <mxCell id="K3HkH2EL4yBhqLBcemKd-178" value="" style="endArrow=classic;html=1;rounded=0;" parent="1" edge="1">
          <mxGeometry width="50" height="50" relative="1" as="geometry">
            <mxPoint x="-2575" y="-5330" as="sourcePoint" />
            <mxPoint x="-2575" y="-5390" as="targetPoint" />
          </mxGeometry>
        </mxCell>
        <mxCell id="K3HkH2EL4yBhqLBcemKd-179" value="" style="rounded=0;whiteSpace=wrap;html=1;fillColor=#008a00;fontColor=#ffffff;strokeColor=#005700;" parent="1" vertex="1">
          <mxGeometry x="-2165" y="-5450" width="200" height="60" as="geometry" />
        </mxCell>
        <mxCell id="K3HkH2EL4yBhqLBcemKd-180" value="&lt;font style=&quot;font-size: 35px;&quot;&gt;md&lt;/font&gt;" style="rounded=0;whiteSpace=wrap;html=1;fillColor=#fff2cc;strokeColor=#d6b656;" parent="1" vertex="1">
          <mxGeometry x="-2235" y="-5450" width="70" height="60" as="geometry" />
        </mxCell>
        <mxCell id="K3HkH2EL4yBhqLBcemKd-181" value="&lt;span style=&quot;font-size: 35px;&quot;&gt;x&lt;/span&gt;" style="rounded=0;whiteSpace=wrap;html=1;fillColor=#0050ef;strokeColor=#001DBC;fontColor=#ffffff;" parent="1" vertex="1">
          <mxGeometry x="-1630" y="-5450" width="60" height="60" as="geometry" />
        </mxCell>
        <mxCell id="K3HkH2EL4yBhqLBcemKd-182" value="&lt;font style=&quot;font-size: 50px;&quot;&gt;Tail&lt;br&gt;Z&lt;/font&gt;" style="text;html=1;align=center;verticalAlign=middle;whiteSpace=wrap;rounded=0;fillColor=#0050ef;fontColor=#ffffff;strokeColor=#001DBC;" parent="1" vertex="1">
          <mxGeometry x="-1745" y="-5300" width="195" height="120" as="geometry" />
        </mxCell>
        <mxCell id="K3HkH2EL4yBhqLBcemKd-183" value="" style="rounded=0;whiteSpace=wrap;html=1;" parent="1" vertex="1">
          <mxGeometry x="-1510" y="-5450" width="90" height="60" as="geometry" />
        </mxCell>
        <mxCell id="K3HkH2EL4yBhqLBcemKd-184" value="&lt;span style=&quot;font-size: 35px;&quot;&gt;!&lt;/span&gt;" style="rounded=0;whiteSpace=wrap;html=1;fillColor=#0050ef;strokeColor=#001DBC;fontColor=#ffffff;" parent="1" vertex="1">
          <mxGeometry x="-1570" y="-5450" width="60" height="60" as="geometry" />
        </mxCell>
        <mxCell id="K3HkH2EL4yBhqLBcemKd-185" value="&lt;span style=&quot;font-size: 35px;&quot;&gt;New&lt;/span&gt;" style="rounded=0;whiteSpace=wrap;html=1;fillColor=#0050ef;strokeColor=#001DBC;fontColor=#ffffff;" parent="1" vertex="1">
          <mxGeometry x="-1690" y="-5450" width="60" height="60" as="geometry" />
        </mxCell>
        <mxCell id="K3HkH2EL4yBhqLBcemKd-186" value="" style="endArrow=classic;html=1;rounded=0;" parent="1" edge="1">
          <mxGeometry width="50" height="50" relative="1" as="geometry">
            <mxPoint x="-1650" y="-5330" as="sourcePoint" />
            <mxPoint x="-1650" y="-5390" as="targetPoint" />
          </mxGeometry>
        </mxCell>
        <mxCell id="K3HkH2EL4yBhqLBcemKd-187" value="" style="rounded=0;whiteSpace=wrap;html=1;fillColor=#008a00;fontColor=#ffffff;strokeColor=#005700;" parent="1" vertex="1">
          <mxGeometry x="-1895" y="-5450" width="200" height="60" as="geometry" />
        </mxCell>
        <mxCell id="K3HkH2EL4yBhqLBcemKd-188" value="&lt;font style=&quot;font-size: 35px;&quot;&gt;md&lt;/font&gt;" style="rounded=0;whiteSpace=wrap;html=1;fillColor=#0050ef;strokeColor=#001DBC;fontColor=#ffffff;" parent="1" vertex="1">
          <mxGeometry x="-1965" y="-5450" width="70" height="60" as="geometry" />
        </mxCell>
        <mxCell id="K3HkH2EL4yBhqLBcemKd-189" value="&lt;span style=&quot;font-size: 50px;&quot;&gt;ptr-1&lt;/span&gt;" style="text;html=1;align=center;verticalAlign=middle;whiteSpace=wrap;rounded=0;" parent="1" vertex="1">
          <mxGeometry x="-3725" y="-5730" width="170" height="70" as="geometry" />
        </mxCell>
        <mxCell id="K3HkH2EL4yBhqLBcemKd-190" value="" style="endArrow=classic;html=1;rounded=0;" parent="1" edge="1">
          <mxGeometry width="50" height="50" relative="1" as="geometry">
            <mxPoint x="-3646" y="-5750" as="sourcePoint" />
            <mxPoint x="-3646" y="-5810" as="targetPoint" />
          </mxGeometry>
        </mxCell>
        <mxCell id="K3HkH2EL4yBhqLBcemKd-193" value="&lt;span style=&quot;font-size: 50px;&quot;&gt;ptr-1&lt;/span&gt;" style="text;html=1;align=center;verticalAlign=middle;whiteSpace=wrap;rounded=0;" parent="1" vertex="1">
          <mxGeometry x="-2010" y="-5310" width="170" height="70" as="geometry" />
        </mxCell>
        <mxCell id="K3HkH2EL4yBhqLBcemKd-194" value="" style="endArrow=classic;html=1;rounded=0;" parent="1" edge="1">
          <mxGeometry width="50" height="50" relative="1" as="geometry">
            <mxPoint x="-1931" y="-5330" as="sourcePoint" />
            <mxPoint x="-1931" y="-5390" as="targetPoint" />
          </mxGeometry>
        </mxCell>
        <mxCell id="K3HkH2EL4yBhqLBcemKd-227" value="" style="rounded=0;whiteSpace=wrap;html=1;" parent="1" vertex="1">
          <mxGeometry x="-3945" y="-5050" width="2630" height="60" as="geometry" />
        </mxCell>
        <mxCell id="K3HkH2EL4yBhqLBcemKd-228" value="" style="rounded=0;whiteSpace=wrap;html=1;fillColor=#008a00;fontColor=#ffffff;strokeColor=#005700;" parent="1" vertex="1">
          <mxGeometry x="-3875" y="-5050" width="200" height="60" as="geometry" />
        </mxCell>
        <mxCell id="K3HkH2EL4yBhqLBcemKd-229" value="&lt;span style=&quot;font-size: 35px;&quot;&gt;!&lt;/span&gt;" style="rounded=0;whiteSpace=wrap;html=1;fillColor=#fff2cc;strokeColor=#d6b656;" parent="1" vertex="1">
          <mxGeometry x="-3615" y="-5050" width="60" height="60" as="geometry" />
        </mxCell>
        <mxCell id="K3HkH2EL4yBhqLBcemKd-230" value="&lt;font style=&quot;font-size: 50px;&quot;&gt;Head&lt;br&gt;y&lt;/font&gt;" style="text;html=1;align=center;verticalAlign=middle;whiteSpace=wrap;rounded=0;" parent="1" vertex="1">
          <mxGeometry x="-3725" y="-4890" width="170" height="70" as="geometry" />
        </mxCell>
        <mxCell id="K3HkH2EL4yBhqLBcemKd-231" value="" style="rounded=0;whiteSpace=wrap;html=1;" parent="1" vertex="1">
          <mxGeometry x="-3495" y="-5050" width="415" height="60" as="geometry" />
        </mxCell>
        <mxCell id="K3HkH2EL4yBhqLBcemKd-232" value="&lt;span style=&quot;font-size: 35px;&quot;&gt;X&lt;/span&gt;" style="rounded=0;whiteSpace=wrap;html=1;fillColor=#a20025;strokeColor=#6F0000;fontColor=#ffffff;" parent="1" vertex="1">
          <mxGeometry x="-3555" y="-5050" width="60" height="60" as="geometry" />
        </mxCell>
        <mxCell id="K3HkH2EL4yBhqLBcemKd-233" value="&lt;span style=&quot;font-size: 35px;&quot;&gt;md&lt;/span&gt;" style="rounded=0;whiteSpace=wrap;html=1;fillColor=#fff2cc;strokeColor=#d6b656;" parent="1" vertex="1">
          <mxGeometry x="-3675" y="-5050" width="60" height="60" as="geometry" />
        </mxCell>
        <mxCell id="K3HkH2EL4yBhqLBcemKd-234" value="" style="endArrow=classic;html=1;rounded=0;" parent="1" edge="1">
          <mxGeometry width="50" height="50" relative="1" as="geometry">
            <mxPoint x="-3635" y="-4930" as="sourcePoint" />
            <mxPoint x="-3635" y="-4990" as="targetPoint" />
          </mxGeometry>
        </mxCell>
        <mxCell id="K3HkH2EL4yBhqLBcemKd-235" value="&lt;span style=&quot;font-size: 50px;&quot;&gt;break&lt;/span&gt;" style="text;html=1;align=center;verticalAlign=middle;whiteSpace=wrap;rounded=0;" parent="1" vertex="1">
          <mxGeometry x="-1475" y="-4900" width="170" height="70" as="geometry" />
        </mxCell>
        <mxCell id="K3HkH2EL4yBhqLBcemKd-236" value="&lt;font style=&quot;font-size: 35px;&quot;&gt;md&lt;/font&gt;" style="rounded=0;whiteSpace=wrap;html=1;fillColor=#fff2cc;strokeColor=#d6b656;" parent="1" vertex="1">
          <mxGeometry x="-3945" y="-5050" width="70" height="60" as="geometry" />
        </mxCell>
        <mxCell id="K3HkH2EL4yBhqLBcemKd-237" value="" style="endArrow=classic;html=1;rounded=0;" parent="1" edge="1">
          <mxGeometry width="50" height="50" relative="1" as="geometry">
            <mxPoint x="-1396" y="-4920" as="sourcePoint" />
            <mxPoint x="-1396" y="-4980" as="targetPoint" />
          </mxGeometry>
        </mxCell>
        <mxCell id="K3HkH2EL4yBhqLBcemKd-238" value="" style="rounded=0;whiteSpace=wrap;html=1;fillColor=#fff2cc;strokeColor=#d6b656;" parent="1" vertex="1">
          <mxGeometry x="-1425" y="-5050" width="60" height="60" as="geometry" />
        </mxCell>
        <mxCell id="K3HkH2EL4yBhqLBcemKd-239" value="" style="rounded=0;whiteSpace=wrap;html=1;fillColor=#008a00;fontColor=#ffffff;strokeColor=#005700;" parent="1" vertex="1">
          <mxGeometry x="-3010" y="-5050" width="200" height="60" as="geometry" />
        </mxCell>
        <mxCell id="K3HkH2EL4yBhqLBcemKd-240" value="&lt;font style=&quot;font-size: 35px;&quot;&gt;md&lt;/font&gt;" style="rounded=0;whiteSpace=wrap;html=1;fillColor=#fff2cc;strokeColor=#d6b656;" parent="1" vertex="1">
          <mxGeometry x="-3080" y="-5050" width="70" height="60" as="geometry" />
        </mxCell>
        <mxCell id="K3HkH2EL4yBhqLBcemKd-242" value="&lt;font style=&quot;font-size: 35px;&quot;&gt;X&lt;/font&gt;" style="text;html=1;align=center;verticalAlign=middle;whiteSpace=wrap;rounded=0;fillColor=#0050ef;fontColor=#ffffff;strokeColor=#001DBC;" parent="1" vertex="1">
          <mxGeometry x="-2665" y="-4890" width="170" height="70" as="geometry" />
        </mxCell>
        <mxCell id="K3HkH2EL4yBhqLBcemKd-243" value="" style="rounded=0;whiteSpace=wrap;html=1;" parent="1" vertex="1">
          <mxGeometry x="-2435" y="-5050" width="210" height="60" as="geometry" />
        </mxCell>
        <mxCell id="K3HkH2EL4yBhqLBcemKd-247" value="" style="rounded=0;whiteSpace=wrap;html=1;fillColor=#008a00;fontColor=#ffffff;strokeColor=#005700;" parent="1" vertex="1">
          <mxGeometry x="-2165" y="-5050" width="200" height="60" as="geometry" />
        </mxCell>
        <mxCell id="K3HkH2EL4yBhqLBcemKd-248" value="&lt;font style=&quot;font-size: 35px;&quot;&gt;md&lt;/font&gt;" style="rounded=0;whiteSpace=wrap;html=1;fillColor=#fff2cc;strokeColor=#d6b656;" parent="1" vertex="1">
          <mxGeometry x="-2235" y="-5050" width="70" height="60" as="geometry" />
        </mxCell>
        <mxCell id="K3HkH2EL4yBhqLBcemKd-249" value="&lt;span style=&quot;font-size: 35px;&quot;&gt;x&lt;/span&gt;" style="rounded=0;whiteSpace=wrap;html=1;fillColor=#a20025;strokeColor=#6F0000;fontColor=#ffffff;" parent="1" vertex="1">
          <mxGeometry x="-1905" y="-5050" width="60" height="60" as="geometry" />
        </mxCell>
        <mxCell id="K3HkH2EL4yBhqLBcemKd-250" value="&lt;font style=&quot;font-size: 50px;&quot;&gt;Tail&lt;br&gt;Z&lt;/font&gt;" style="text;html=1;align=center;verticalAlign=middle;whiteSpace=wrap;rounded=0;" parent="1" vertex="1">
          <mxGeometry x="-2015" y="-4890" width="170" height="70" as="geometry" />
        </mxCell>
        <mxCell id="K3HkH2EL4yBhqLBcemKd-251" value="" style="rounded=0;whiteSpace=wrap;html=1;" parent="1" vertex="1">
          <mxGeometry x="-1785" y="-5050" width="360" height="60" as="geometry" />
        </mxCell>
        <mxCell id="K3HkH2EL4yBhqLBcemKd-252" value="&lt;span style=&quot;font-size: 35px;&quot;&gt;!&lt;/span&gt;" style="rounded=0;whiteSpace=wrap;html=1;fillColor=#fff2cc;strokeColor=#d6b656;" parent="1" vertex="1">
          <mxGeometry x="-1845" y="-5050" width="60" height="60" as="geometry" />
        </mxCell>
        <mxCell id="K3HkH2EL4yBhqLBcemKd-253" value="&lt;span style=&quot;font-size: 35px;&quot;&gt;md&lt;/span&gt;" style="rounded=0;whiteSpace=wrap;html=1;fillColor=#fff2cc;strokeColor=#d6b656;" parent="1" vertex="1">
          <mxGeometry x="-1965" y="-5050" width="60" height="60" as="geometry" />
        </mxCell>
        <mxCell id="K3HkH2EL4yBhqLBcemKd-254" value="" style="endArrow=classic;html=1;rounded=0;" parent="1" edge="1">
          <mxGeometry width="50" height="50" relative="1" as="geometry">
            <mxPoint x="-1925" y="-4930" as="sourcePoint" />
            <mxPoint x="-1925" y="-4990" as="targetPoint" />
          </mxGeometry>
        </mxCell>
        <mxCell id="K3HkH2EL4yBhqLBcemKd-256" value="" style="rounded=0;whiteSpace=wrap;html=1;fillColor=#008a00;fontColor=#ffffff;strokeColor=#005700;" parent="1" vertex="1">
          <mxGeometry x="-2730" y="-5050" width="90" height="60" as="geometry" />
        </mxCell>
        <mxCell id="K3HkH2EL4yBhqLBcemKd-257" value="&lt;span style=&quot;font-size: 35px;&quot;&gt;y&lt;/span&gt;" style="rounded=0;whiteSpace=wrap;html=1;fillColor=#0050ef;strokeColor=#001DBC;fontColor=#ffffff;" parent="1" vertex="1">
          <mxGeometry x="-2560" y="-5050" width="60" height="60" as="geometry" />
        </mxCell>
        <mxCell id="K3HkH2EL4yBhqLBcemKd-258" value="&lt;span style=&quot;font-size: 35px;&quot;&gt;z&lt;/span&gt;" style="rounded=0;whiteSpace=wrap;html=1;fillColor=#0050ef;strokeColor=#001DBC;fontColor=#ffffff;" parent="1" vertex="1">
          <mxGeometry x="-2500" y="-5050" width="60" height="60" as="geometry" />
        </mxCell>
        <mxCell id="K3HkH2EL4yBhqLBcemKd-259" value="&lt;span style=&quot;font-size: 35px;&quot;&gt;New&lt;/span&gt;" style="rounded=0;whiteSpace=wrap;html=1;fillColor=#0050ef;strokeColor=#001DBC;fontColor=#ffffff;" parent="1" vertex="1">
          <mxGeometry x="-2640" y="-5050" width="80" height="60" as="geometry" />
        </mxCell>
        <mxCell id="K3HkH2EL4yBhqLBcemKd-260" value="" style="endArrow=classic;html=1;rounded=0;" parent="1" edge="1">
          <mxGeometry width="50" height="50" relative="1" as="geometry">
            <mxPoint x="-2601" y="-4930" as="sourcePoint" />
            <mxPoint x="-2601" y="-4990" as="targetPoint" />
          </mxGeometry>
        </mxCell>
        <mxCell id="K3HkH2EL4yBhqLBcemKd-261" value="&lt;font style=&quot;font-size: 35px;&quot;&gt;new&lt;/font&gt;" style="rounded=0;whiteSpace=wrap;html=1;fillColor=#0050ef;strokeColor=#001DBC;fontColor=#ffffff;" parent="1" vertex="1">
          <mxGeometry x="-2815" y="-5050" width="85" height="60" as="geometry" />
        </mxCell>
        <mxCell id="K3HkH2EL4yBhqLBcemKd-262" value="" style="endArrow=classic;html=1;rounded=0;" parent="1" edge="1">
          <mxGeometry width="50" height="50" relative="1" as="geometry">
            <mxPoint x="-2786" y="-4920" as="sourcePoint" />
            <mxPoint x="-2786" y="-4980" as="targetPoint" />
          </mxGeometry>
        </mxCell>
        <mxCell id="K3HkH2EL4yBhqLBcemKd-263" value="&lt;span style=&quot;font-size: 50px;&quot;&gt;ptr-1&lt;/span&gt;" style="text;html=1;align=center;verticalAlign=middle;whiteSpace=wrap;rounded=0;" parent="1" vertex="1">
          <mxGeometry x="-2860" y="-4900" width="170" height="70" as="geometry" />
        </mxCell>
        <mxCell id="K3HkH2EL4yBhqLBcemKd-349" style="edgeStyle=orthogonalEdgeStyle;rounded=0;orthogonalLoop=1;jettySize=auto;html=1;exitX=0.5;exitY=1;exitDx=0;exitDy=0;entryX=0.5;entryY=0;entryDx=0;entryDy=0;strokeWidth=5;" parent="1" source="K3HkH2EL4yBhqLBcemKd-265" target="K3HkH2EL4yBhqLBcemKd-268" edge="1">
          <mxGeometry relative="1" as="geometry" />
        </mxCell>
        <mxCell id="K3HkH2EL4yBhqLBcemKd-265" value="&lt;span style=&quot;font-size: 50px;&quot;&gt;check if i == head&lt;/span&gt;" style="rounded=0;whiteSpace=wrap;html=1;" parent="1" vertex="1">
          <mxGeometry x="1035" y="-5520" width="470" height="140" as="geometry" />
        </mxCell>
        <mxCell id="K3HkH2EL4yBhqLBcemKd-266" style="edgeStyle=orthogonalEdgeStyle;rounded=0;orthogonalLoop=1;jettySize=auto;html=1;exitX=0.5;exitY=1;exitDx=0;exitDy=0;strokeWidth=5;" parent="1" source="K3HkH2EL4yBhqLBcemKd-268" edge="1">
          <mxGeometry relative="1" as="geometry">
            <mxPoint x="1271" y="-4970" as="targetPoint" />
          </mxGeometry>
        </mxCell>
        <mxCell id="K3HkH2EL4yBhqLBcemKd-267" value="&lt;font style=&quot;font-size: 35px;&quot;&gt;Yes&lt;/font&gt;" style="edgeLabel;html=1;align=center;verticalAlign=middle;resizable=0;points=[];" parent="K3HkH2EL4yBhqLBcemKd-266" vertex="1" connectable="0">
          <mxGeometry x="-0.2844" y="-5" relative="1" as="geometry">
            <mxPoint y="1" as="offset" />
          </mxGeometry>
        </mxCell>
        <mxCell id="K3HkH2EL4yBhqLBcemKd-352" style="edgeStyle=orthogonalEdgeStyle;rounded=0;orthogonalLoop=1;jettySize=auto;html=1;exitX=0;exitY=0.5;exitDx=0;exitDy=0;entryX=1;entryY=0.5;entryDx=0;entryDy=0;strokeWidth=5;" parent="1" source="K3HkH2EL4yBhqLBcemKd-268" target="K3HkH2EL4yBhqLBcemKd-271" edge="1">
          <mxGeometry relative="1" as="geometry" />
        </mxCell>
        <mxCell id="K3HkH2EL4yBhqLBcemKd-268" value="&lt;font style=&quot;font-size: 45px;&quot;&gt;Check Condition&lt;/font&gt;" style="rhombus;whiteSpace=wrap;html=1;" parent="1" vertex="1">
          <mxGeometry x="1130" y="-5310" width="280" height="200" as="geometry" />
        </mxCell>
        <mxCell id="K3HkH2EL4yBhqLBcemKd-366" style="edgeStyle=orthogonalEdgeStyle;rounded=0;orthogonalLoop=1;jettySize=auto;html=1;entryX=0.5;entryY=0;entryDx=0;entryDy=0;strokeWidth=5;" parent="1" source="K3HkH2EL4yBhqLBcemKd-270" target="K3HkH2EL4yBhqLBcemKd-279" edge="1">
          <mxGeometry relative="1" as="geometry">
            <mxPoint x="1340" y="-4290" as="targetPoint" />
            <Array as="points">
              <mxPoint x="1270" y="-4555" />
              <mxPoint x="2130" y="-4555" />
            </Array>
          </mxGeometry>
        </mxCell>
        <mxCell id="K3HkH2EL4yBhqLBcemKd-270" value="&lt;span style=&quot;font-size: 50px;&quot;&gt;case 1`&lt;/span&gt;" style="rounded=0;whiteSpace=wrap;html=1;" parent="1" vertex="1">
          <mxGeometry x="1145" y="-4960" width="250" height="140" as="geometry" />
        </mxCell>
        <mxCell id="K3HkH2EL4yBhqLBcemKd-351" value="" style="edgeStyle=orthogonalEdgeStyle;rounded=0;orthogonalLoop=1;jettySize=auto;html=1;strokeWidth=5;" parent="1" source="K3HkH2EL4yBhqLBcemKd-271" target="K3HkH2EL4yBhqLBcemKd-275" edge="1">
          <mxGeometry relative="1" as="geometry" />
        </mxCell>
        <mxCell id="K3HkH2EL4yBhqLBcemKd-271" value="&lt;span style=&quot;font-size: 50px;&quot;&gt;check if i == Tail&lt;/span&gt;" style="rounded=0;whiteSpace=wrap;html=1;" parent="1" vertex="1">
          <mxGeometry x="540" y="-5280" width="470" height="140" as="geometry" />
        </mxCell>
        <mxCell id="K3HkH2EL4yBhqLBcemKd-273" style="edgeStyle=orthogonalEdgeStyle;rounded=0;orthogonalLoop=1;jettySize=auto;html=1;exitX=0.5;exitY=1;exitDx=0;exitDy=0;strokeWidth=5;" parent="1" source="K3HkH2EL4yBhqLBcemKd-275" edge="1">
          <mxGeometry relative="1" as="geometry">
            <mxPoint x="776" y="-4760" as="targetPoint" />
          </mxGeometry>
        </mxCell>
        <mxCell id="K3HkH2EL4yBhqLBcemKd-274" value="&lt;font style=&quot;font-size: 35px;&quot;&gt;Yes&lt;/font&gt;" style="edgeLabel;html=1;align=center;verticalAlign=middle;resizable=0;points=[];" parent="K3HkH2EL4yBhqLBcemKd-273" vertex="1" connectable="0">
          <mxGeometry x="-0.2844" y="-5" relative="1" as="geometry">
            <mxPoint y="1" as="offset" />
          </mxGeometry>
        </mxCell>
        <mxCell id="K3HkH2EL4yBhqLBcemKd-355" value="" style="edgeStyle=orthogonalEdgeStyle;rounded=0;orthogonalLoop=1;jettySize=auto;html=1;strokeWidth=5;" parent="1" source="K3HkH2EL4yBhqLBcemKd-275" target="K3HkH2EL4yBhqLBcemKd-293" edge="1">
          <mxGeometry relative="1" as="geometry" />
        </mxCell>
        <mxCell id="K3HkH2EL4yBhqLBcemKd-275" value="&lt;font style=&quot;font-size: 45px;&quot;&gt;Check Condition&lt;/font&gt;" style="rhombus;whiteSpace=wrap;html=1;" parent="1" vertex="1">
          <mxGeometry x="635" y="-5100" width="280" height="200" as="geometry" />
        </mxCell>
        <mxCell id="K3HkH2EL4yBhqLBcemKd-369" style="edgeStyle=orthogonalEdgeStyle;rounded=0;orthogonalLoop=1;jettySize=auto;html=1;strokeWidth=5;" parent="1" source="K3HkH2EL4yBhqLBcemKd-276" edge="1">
          <mxGeometry relative="1" as="geometry">
            <mxPoint x="2130" y="-4280" as="targetPoint" />
            <Array as="points">
              <mxPoint x="775" y="-4420" />
              <mxPoint x="2131" y="-4420" />
              <mxPoint x="2131" y="-4280" />
            </Array>
          </mxGeometry>
        </mxCell>
        <mxCell id="K3HkH2EL4yBhqLBcemKd-276" value="&lt;span style=&quot;font-size: 50px;&quot;&gt;case 2`&lt;/span&gt;" style="rounded=0;whiteSpace=wrap;html=1;" parent="1" vertex="1">
          <mxGeometry x="650" y="-4750" width="250" height="140" as="geometry" />
        </mxCell>
        <mxCell id="K3HkH2EL4yBhqLBcemKd-279" value="&lt;span style=&quot;font-size: 50px;&quot;&gt;return :&lt;br&gt;1-&amp;nbsp;return value point to the beginning of data space&lt;br&gt;2-&amp;nbsp;edit metadata of new allocation to new allocation available space&lt;/span&gt;" style="rounded=0;whiteSpace=wrap;html=1;" parent="1" vertex="1">
          <mxGeometry x="1360" y="-4270" width="1540" height="240" as="geometry" />
        </mxCell>
        <mxCell id="K3HkH2EL4yBhqLBcemKd-282" style="edgeStyle=orthogonalEdgeStyle;rounded=0;orthogonalLoop=1;jettySize=auto;html=1;exitX=0.5;exitY=1;exitDx=0;exitDy=0;entryX=0.5;entryY=0;entryDx=0;entryDy=0;strokeWidth=5;" parent="1" target="K3HkH2EL4yBhqLBcemKd-285" edge="1">
          <mxGeometry relative="1" as="geometry">
            <mxPoint x="315" y="-4907.5" as="sourcePoint" />
          </mxGeometry>
        </mxCell>
        <mxCell id="K3HkH2EL4yBhqLBcemKd-283" style="edgeStyle=orthogonalEdgeStyle;rounded=0;orthogonalLoop=1;jettySize=auto;html=1;exitX=0.5;exitY=1;exitDx=0;exitDy=0;strokeWidth=5;" parent="1" source="K3HkH2EL4yBhqLBcemKd-285" edge="1">
          <mxGeometry relative="1" as="geometry">
            <mxPoint x="316" y="-4490" as="targetPoint" />
          </mxGeometry>
        </mxCell>
        <mxCell id="K3HkH2EL4yBhqLBcemKd-284" value="&lt;font style=&quot;font-size: 35px;&quot;&gt;Yes&lt;/font&gt;" style="edgeLabel;html=1;align=center;verticalAlign=middle;resizable=0;points=[];" parent="K3HkH2EL4yBhqLBcemKd-283" vertex="1" connectable="0">
          <mxGeometry x="-0.2844" y="-5" relative="1" as="geometry">
            <mxPoint y="1" as="offset" />
          </mxGeometry>
        </mxCell>
        <mxCell id="K3HkH2EL4yBhqLBcemKd-356" value="" style="edgeStyle=orthogonalEdgeStyle;rounded=0;orthogonalLoop=1;jettySize=auto;html=1;strokeWidth=5;" parent="1" source="K3HkH2EL4yBhqLBcemKd-285" target="K3HkH2EL4yBhqLBcemKd-294" edge="1">
          <mxGeometry relative="1" as="geometry" />
        </mxCell>
        <mxCell id="K3HkH2EL4yBhqLBcemKd-285" value="&lt;font style=&quot;font-size: 45px;&quot;&gt;Check Condition&lt;/font&gt;" style="rhombus;whiteSpace=wrap;html=1;" parent="1" vertex="1">
          <mxGeometry x="175" y="-4830" width="280" height="200" as="geometry" />
        </mxCell>
        <mxCell id="K3HkH2EL4yBhqLBcemKd-286" value="&lt;span style=&quot;font-size: 50px;&quot;&gt;case 3`&lt;/span&gt;" style="rounded=0;whiteSpace=wrap;html=1;" parent="1" vertex="1">
          <mxGeometry x="190" y="-4480" width="250" height="140" as="geometry" />
        </mxCell>
        <mxCell id="K3HkH2EL4yBhqLBcemKd-287" value="&lt;span style=&quot;font-size: 50px;&quot;&gt;error coniditon&lt;/span&gt;" style="rounded=0;whiteSpace=wrap;html=1;" parent="1" vertex="1">
          <mxGeometry x="3620" y="-4775" width="470" height="140" as="geometry" />
        </mxCell>
        <mxCell id="K3HkH2EL4yBhqLBcemKd-293" value="&lt;span style=&quot;font-size: 50px;&quot;&gt;Middle node&lt;/span&gt;" style="rounded=0;whiteSpace=wrap;html=1;" parent="1" vertex="1">
          <mxGeometry x="60" y="-5070" width="470" height="140" as="geometry" />
        </mxCell>
        <mxCell id="K3HkH2EL4yBhqLBcemKd-294" value="&lt;span style=&quot;font-size: 50px;&quot;&gt;error coniditon&lt;/span&gt;" style="rounded=0;whiteSpace=wrap;html=1;" parent="1" vertex="1">
          <mxGeometry x="-380" y="-4800" width="470" height="140" as="geometry" />
        </mxCell>
        <mxCell id="K3HkH2EL4yBhqLBcemKd-341" style="edgeStyle=orthogonalEdgeStyle;rounded=0;orthogonalLoop=1;jettySize=auto;html=1;strokeWidth=5;" parent="1" source="K3HkH2EL4yBhqLBcemKd-297" target="K3HkH2EL4yBhqLBcemKd-62" edge="1">
          <mxGeometry relative="1" as="geometry" />
        </mxCell>
        <mxCell id="K3HkH2EL4yBhqLBcemKd-342" style="edgeStyle=orthogonalEdgeStyle;rounded=0;orthogonalLoop=1;jettySize=auto;html=1;entryX=0.5;entryY=1;entryDx=0;entryDy=0;strokeWidth=5;" parent="1" source="K3HkH2EL4yBhqLBcemKd-297" target="K3HkH2EL4yBhqLBcemKd-302" edge="1">
          <mxGeometry relative="1" as="geometry" />
        </mxCell>
        <mxCell id="K3HkH2EL4yBhqLBcemKd-297" value="&lt;font style=&quot;font-size: 45px;&quot;&gt;Check on !&lt;/font&gt;" style="rhombus;whiteSpace=wrap;html=1;" parent="1" vertex="1">
          <mxGeometry x="1640" y="-6130" width="280" height="200" as="geometry" />
        </mxCell>
        <mxCell id="K3HkH2EL4yBhqLBcemKd-302" value="&lt;font style=&quot;font-size: 50px;&quot;&gt;Extend break&lt;/font&gt;" style="rounded=0;whiteSpace=wrap;html=1;" parent="1" vertex="1">
          <mxGeometry x="1545" y="-6460" width="470" height="140" as="geometry" />
        </mxCell>
        <mxCell id="K3HkH2EL4yBhqLBcemKd-305" value="&lt;h1 style=&quot;margin-top: 0px; font-size: 45px;&quot;&gt;Extend break&amp;nbsp;&lt;/h1&gt;&lt;p style=&quot;font-size: 45px;&quot;&gt;&lt;font style=&quot;font-size: 45px;&quot;&gt;&amp;nbsp; &amp;nbsp; /* if you exist from while because that there is no suitable free space&lt;/font&gt;&lt;/p&gt;&lt;p style=&quot;font-size: 45px;&quot;&gt;&lt;font style=&quot;font-size: 45px;&quot;&gt;&amp;nbsp; &amp;nbsp; * that : 1.&amp;nbsp; define new tail index point to new free space and call Helper_sbrk to extend break index&amp;nbsp;&lt;/font&gt;&lt;/p&gt;&lt;p style=&quot;font-size: 45px;&quot;&gt;&lt;font style=&quot;font-size: 45px;&quot;&gt;&amp;nbsp; &amp;nbsp; *&amp;nbsp; &amp;nbsp; &amp;nbsp; &amp;nbsp; 2. new tail -&amp;gt; previous free space point to old tail -&amp;gt; previous free space&lt;/font&gt;&lt;/p&gt;&lt;p style=&quot;font-size: 45px;&quot;&gt;&lt;font style=&quot;font-size: 45px;&quot;&gt;&amp;nbsp; &amp;nbsp; *&amp;nbsp; &amp;nbsp; &amp;nbsp; &amp;nbsp; 3. new tail -&amp;gt; next free space point to !&lt;/font&gt;&lt;/p&gt;&lt;p style=&quot;font-size: 45px;&quot;&gt;&lt;font style=&quot;font-size: 45px;&quot;&gt;&amp;nbsp; &amp;nbsp; *&amp;nbsp; &amp;nbsp; &amp;nbsp; &amp;nbsp; 4. remove old tail node&amp;nbsp;&lt;/font&gt;&lt;/p&gt;&lt;p&gt;&amp;nbsp; &amp;nbsp; */&lt;/p&gt;" style="text;html=1;whiteSpace=wrap;overflow=hidden;rounded=0;" parent="1" vertex="1">
          <mxGeometry x="-5900" y="-4635" width="2040" height="395" as="geometry" />
        </mxCell>
        <mxCell id="K3HkH2EL4yBhqLBcemKd-306" value="" style="rounded=0;whiteSpace=wrap;html=1;" parent="1" vertex="1">
          <mxGeometry x="-3940" y="-4510" width="3480" height="60" as="geometry" />
        </mxCell>
        <mxCell id="K3HkH2EL4yBhqLBcemKd-307" value="" style="rounded=0;whiteSpace=wrap;html=1;fillColor=#008a00;fontColor=#ffffff;strokeColor=#005700;" parent="1" vertex="1">
          <mxGeometry x="-3870" y="-4510" width="200" height="60" as="geometry" />
        </mxCell>
        <mxCell id="K3HkH2EL4yBhqLBcemKd-308" value="&lt;span style=&quot;font-size: 35px;&quot;&gt;!&lt;/span&gt;" style="rounded=0;whiteSpace=wrap;html=1;fillColor=#fff2cc;strokeColor=#d6b656;" parent="1" vertex="1">
          <mxGeometry x="-3610" y="-4510" width="60" height="60" as="geometry" />
        </mxCell>
        <mxCell id="K3HkH2EL4yBhqLBcemKd-309" value="&lt;font style=&quot;font-size: 50px;&quot;&gt;Head&lt;br&gt;y&lt;/font&gt;" style="text;html=1;align=center;verticalAlign=middle;whiteSpace=wrap;rounded=0;" parent="1" vertex="1">
          <mxGeometry x="-3720" y="-4350" width="170" height="70" as="geometry" />
        </mxCell>
        <mxCell id="K3HkH2EL4yBhqLBcemKd-310" value="" style="rounded=0;whiteSpace=wrap;html=1;" parent="1" vertex="1">
          <mxGeometry x="-3490" y="-4510" width="610" height="60" as="geometry" />
        </mxCell>
        <mxCell id="K3HkH2EL4yBhqLBcemKd-311" value="&lt;span style=&quot;font-size: 35px;&quot;&gt;X&lt;/span&gt;" style="rounded=0;whiteSpace=wrap;html=1;fillColor=#fff2cc;strokeColor=#d6b656;" parent="1" vertex="1">
          <mxGeometry x="-3550" y="-4510" width="60" height="60" as="geometry" />
        </mxCell>
        <mxCell id="K3HkH2EL4yBhqLBcemKd-312" value="&lt;span style=&quot;font-size: 35px;&quot;&gt;md&lt;/span&gt;" style="rounded=0;whiteSpace=wrap;html=1;fillColor=#fff2cc;strokeColor=#d6b656;" parent="1" vertex="1">
          <mxGeometry x="-3670" y="-4510" width="60" height="60" as="geometry" />
        </mxCell>
        <mxCell id="K3HkH2EL4yBhqLBcemKd-313" value="" style="endArrow=classic;html=1;rounded=0;" parent="1" edge="1">
          <mxGeometry width="50" height="50" relative="1" as="geometry">
            <mxPoint x="-3630" y="-4390" as="sourcePoint" />
            <mxPoint x="-3630" y="-4450" as="targetPoint" />
          </mxGeometry>
        </mxCell>
        <mxCell id="K3HkH2EL4yBhqLBcemKd-314" value="&lt;span style=&quot;font-size: 50px;&quot;&gt;break&lt;/span&gt;" style="text;html=1;align=center;verticalAlign=middle;whiteSpace=wrap;rounded=0;" parent="1" vertex="1">
          <mxGeometry x="-660" y="-4360" width="170" height="70" as="geometry" />
        </mxCell>
        <mxCell id="K3HkH2EL4yBhqLBcemKd-315" value="&lt;font style=&quot;font-size: 35px;&quot;&gt;md&lt;/font&gt;" style="rounded=0;whiteSpace=wrap;html=1;fillColor=#fff2cc;strokeColor=#d6b656;" parent="1" vertex="1">
          <mxGeometry x="-3940" y="-4510" width="70" height="60" as="geometry" />
        </mxCell>
        <mxCell id="K3HkH2EL4yBhqLBcemKd-316" value="" style="endArrow=classic;html=1;rounded=0;" parent="1" edge="1">
          <mxGeometry width="50" height="50" relative="1" as="geometry">
            <mxPoint x="-581" y="-4380" as="sourcePoint" />
            <mxPoint x="-581" y="-4440" as="targetPoint" />
          </mxGeometry>
        </mxCell>
        <mxCell id="K3HkH2EL4yBhqLBcemKd-317" value="" style="rounded=0;whiteSpace=wrap;html=1;fillColor=#fff2cc;strokeColor=#d6b656;" parent="1" vertex="1">
          <mxGeometry x="-610" y="-4510" width="60" height="60" as="geometry" />
        </mxCell>
        <mxCell id="K3HkH2EL4yBhqLBcemKd-318" value="" style="rounded=0;whiteSpace=wrap;html=1;fillColor=#008a00;fontColor=#ffffff;strokeColor=#005700;" parent="1" vertex="1">
          <mxGeometry x="-2810" y="-4510" width="200" height="60" as="geometry" />
        </mxCell>
        <mxCell id="K3HkH2EL4yBhqLBcemKd-319" value="&lt;font style=&quot;font-size: 35px;&quot;&gt;md&lt;/font&gt;" style="rounded=0;whiteSpace=wrap;html=1;fillColor=#fff2cc;strokeColor=#d6b656;" parent="1" vertex="1">
          <mxGeometry x="-2880" y="-4510" width="70" height="60" as="geometry" />
        </mxCell>
        <mxCell id="K3HkH2EL4yBhqLBcemKd-320" value="&lt;span style=&quot;font-size: 35px;&quot;&gt;y&lt;/span&gt;" style="rounded=0;whiteSpace=wrap;html=1;fillColor=#fff2cc;strokeColor=#d6b656;" parent="1" vertex="1">
          <mxGeometry x="-2550" y="-4510" width="60" height="60" as="geometry" />
        </mxCell>
        <mxCell id="K3HkH2EL4yBhqLBcemKd-321" value="&lt;font style=&quot;font-size: 35px;&quot;&gt;X&lt;/font&gt;" style="text;html=1;align=center;verticalAlign=middle;whiteSpace=wrap;rounded=0;" parent="1" vertex="1">
          <mxGeometry x="-2660" y="-4350" width="170" height="70" as="geometry" />
        </mxCell>
        <mxCell id="K3HkH2EL4yBhqLBcemKd-322" value="" style="rounded=0;whiteSpace=wrap;html=1;" parent="1" vertex="1">
          <mxGeometry x="-2430" y="-4510" width="210" height="60" as="geometry" />
        </mxCell>
        <mxCell id="K3HkH2EL4yBhqLBcemKd-323" value="&lt;span style=&quot;font-size: 35px;&quot;&gt;z&lt;/span&gt;" style="rounded=0;whiteSpace=wrap;html=1;fillColor=#fff2cc;strokeColor=#d6b656;" parent="1" vertex="1">
          <mxGeometry x="-2490" y="-4510" width="60" height="60" as="geometry" />
        </mxCell>
        <mxCell id="K3HkH2EL4yBhqLBcemKd-324" value="&lt;span style=&quot;font-size: 35px;&quot;&gt;md&lt;/span&gt;" style="rounded=0;whiteSpace=wrap;html=1;fillColor=#fff2cc;strokeColor=#d6b656;" parent="1" vertex="1">
          <mxGeometry x="-2610" y="-4510" width="60" height="60" as="geometry" />
        </mxCell>
        <mxCell id="K3HkH2EL4yBhqLBcemKd-325" value="" style="endArrow=classic;html=1;rounded=0;" parent="1" edge="1">
          <mxGeometry width="50" height="50" relative="1" as="geometry">
            <mxPoint x="-2570" y="-4390" as="sourcePoint" />
            <mxPoint x="-2570" y="-4450" as="targetPoint" />
          </mxGeometry>
        </mxCell>
        <mxCell id="K3HkH2EL4yBhqLBcemKd-326" value="" style="rounded=0;whiteSpace=wrap;html=1;fillColor=#008a00;fontColor=#ffffff;strokeColor=#005700;" parent="1" vertex="1">
          <mxGeometry x="-2160" y="-4510" width="200" height="60" as="geometry" />
        </mxCell>
        <mxCell id="K3HkH2EL4yBhqLBcemKd-327" value="&lt;font style=&quot;font-size: 35px;&quot;&gt;md&lt;/font&gt;" style="rounded=0;whiteSpace=wrap;html=1;fillColor=#fff2cc;strokeColor=#d6b656;" parent="1" vertex="1">
          <mxGeometry x="-2230" y="-4510" width="70" height="60" as="geometry" />
        </mxCell>
        <mxCell id="K3HkH2EL4yBhqLBcemKd-328" value="&lt;span style=&quot;font-size: 35px;&quot;&gt;x&lt;/span&gt;" style="rounded=0;whiteSpace=wrap;html=1;fillColor=#fff2cc;strokeColor=#d6b656;" parent="1" vertex="1">
          <mxGeometry x="-1900" y="-4510" width="60" height="60" as="geometry" />
        </mxCell>
        <mxCell id="K3HkH2EL4yBhqLBcemKd-329" value="&lt;font style=&quot;font-size: 50px;&quot;&gt;Tail&lt;br&gt;Z&lt;/font&gt;" style="text;html=1;align=center;verticalAlign=middle;whiteSpace=wrap;rounded=0;" parent="1" vertex="1">
          <mxGeometry x="-2010" y="-4350" width="170" height="70" as="geometry" />
        </mxCell>
        <mxCell id="K3HkH2EL4yBhqLBcemKd-330" value="" style="rounded=0;whiteSpace=wrap;html=1;" parent="1" vertex="1">
          <mxGeometry x="-1780" y="-4510" width="1170" height="60" as="geometry" />
        </mxCell>
        <mxCell id="K3HkH2EL4yBhqLBcemKd-331" value="&lt;span style=&quot;font-size: 35px;&quot;&gt;!&lt;/span&gt;" style="rounded=0;whiteSpace=wrap;html=1;fillColor=#fff2cc;strokeColor=#d6b656;" parent="1" vertex="1">
          <mxGeometry x="-1840" y="-4510" width="60" height="60" as="geometry" />
        </mxCell>
        <mxCell id="K3HkH2EL4yBhqLBcemKd-332" value="&lt;span style=&quot;font-size: 35px;&quot;&gt;md&lt;/span&gt;" style="rounded=0;whiteSpace=wrap;html=1;fillColor=#fff2cc;strokeColor=#d6b656;" parent="1" vertex="1">
          <mxGeometry x="-1960" y="-4510" width="60" height="60" as="geometry" />
        </mxCell>
        <mxCell id="K3HkH2EL4yBhqLBcemKd-333" value="" style="endArrow=classic;html=1;rounded=0;" parent="1" edge="1">
          <mxGeometry width="50" height="50" relative="1" as="geometry">
            <mxPoint x="-1920" y="-4390" as="sourcePoint" />
            <mxPoint x="-1920" y="-4450" as="targetPoint" />
          </mxGeometry>
        </mxCell>
        <mxCell id="K3HkH2EL4yBhqLBcemKd-339" value="&lt;span style=&quot;font-size: 35px;&quot;&gt;New&lt;/span&gt;" style="rounded=0;whiteSpace=wrap;html=1;fillColor=#0050ef;strokeColor=#001DBC;fontColor=#ffffff;" parent="1" vertex="1">
          <mxGeometry x="-1960" y="-4510" width="60" height="60" as="geometry" />
        </mxCell>
        <mxCell id="K3HkH2EL4yBhqLBcemKd-358" style="edgeStyle=orthogonalEdgeStyle;rounded=0;orthogonalLoop=1;jettySize=auto;html=1;strokeWidth=5;" parent="1" source="K3HkH2EL4yBhqLBcemKd-357" target="K3HkH2EL4yBhqLBcemKd-61" edge="1">
          <mxGeometry relative="1" as="geometry" />
        </mxCell>
        <mxCell id="K3HkH2EL4yBhqLBcemKd-357" value="&lt;font style=&quot;font-size: 45px;&quot;&gt;start&lt;/font&gt;" style="ellipse;whiteSpace=wrap;html=1;" parent="1" vertex="1">
          <mxGeometry x="2205" y="-6830" width="250" height="180" as="geometry" />
        </mxCell>
        <mxCell id="K3HkH2EL4yBhqLBcemKd-362" value="" style="endArrow=classic;html=1;rounded=0;entryX=1;entryY=0.5;entryDx=0;entryDy=0;strokeWidth=5;" parent="1" target="K3HkH2EL4yBhqLBcemKd-279" edge="1">
          <mxGeometry width="50" height="50" relative="1" as="geometry">
            <mxPoint x="3360" y="-4140" as="sourcePoint" />
            <mxPoint x="3460" y="-4070" as="targetPoint" />
          </mxGeometry>
        </mxCell>
        <mxCell id="K3HkH2EL4yBhqLBcemKd-363" value="" style="endArrow=none;html=1;rounded=0;entryX=0.5;entryY=1;entryDx=0;entryDy=0;strokeWidth=5;" parent="1" target="K3HkH2EL4yBhqLBcemKd-120" edge="1">
          <mxGeometry width="50" height="50" relative="1" as="geometry">
            <mxPoint x="3355" y="-4140" as="sourcePoint" />
            <mxPoint x="2870" y="-4650" as="targetPoint" />
          </mxGeometry>
        </mxCell>
        <mxCell id="K3HkH2EL4yBhqLBcemKd-364" value="" style="endArrow=none;html=1;rounded=0;entryX=0.5;entryY=1;entryDx=0;entryDy=0;strokeWidth=5;" parent="1" edge="1">
          <mxGeometry width="50" height="50" relative="1" as="geometry">
            <mxPoint x="314" y="-4165" as="sourcePoint" />
            <mxPoint x="314" y="-4340" as="targetPoint" />
          </mxGeometry>
        </mxCell>
        <mxCell id="K3HkH2EL4yBhqLBcemKd-365" value="" style="endArrow=classic;html=1;rounded=0;entryX=0;entryY=0.5;entryDx=0;entryDy=0;strokeWidth=5;" parent="1" target="K3HkH2EL4yBhqLBcemKd-279" edge="1">
          <mxGeometry width="50" height="50" relative="1" as="geometry">
            <mxPoint x="320" y="-4170" as="sourcePoint" />
            <mxPoint x="1060" y="-4180" as="targetPoint" />
          </mxGeometry>
        </mxCell>
      </root>
    </mxGraphModel>
  </diagram>
</mxfile>
